ISO-10303-21;
HEADER;
/* Generated by software containing ST-Developer
 * from STEP Tools, Inc. (www.steptools.com) 
 */
/* OPTION: using custom renumber hook */

FILE_DESCRIPTION(
/* description */ ('STEP AP242 Edition 2',
'CAx-IF Rec.Pracs.---Representation and Presentation of Product Manufa
cturing Information (PMI)---4.0---2014-10-13',
'CAx-IF Rec.Pracs.---3D Tessellated Geometry---0.4---2014-09-14','2;1',
'CAx-IF Rec.Pracs.---User Defined Attributes---1.5---2016-08-15'),
/* implementation_level */ '2;1');

FILE_NAME(
/* name */ 'BM02B-ACHSS-GAN-ETF',
/* time_stamp */ '2026-09-03T09:18:07Z',
/* author */ (''),
/* organization */ (''),
/* preprocessor_version */ 'ST-DEVELOPER v20',
/* originating_system */ 'ONSHAPE BY PTC INC, 1.220',
/* authorisation */ '  ');

FILE_SCHEMA (('AP242_MANAGED_MODEL_BASED_3D_ENGINEERING_MIM_LF { 1 0 10303 442 3 1 4 }'));
ENDSEC;

DATA;
#10=SHAPE_REPRESENTATION_RELATIONSHIP('','',#1413,#11);
#11=ADVANCED_BREP_SHAPE_REPRESENTATION('',(#1411),#2107);
#12=OVER_RIDING_STYLED_ITEM('',(#1236),#1178,#1234);
#13=OVER_RIDING_STYLED_ITEM('',(#1237),#1179,#1234);
#14=OVER_RIDING_STYLED_ITEM('',(#1238),#1180,#1234);
#15=OVER_RIDING_STYLED_ITEM('',(#1239),#1181,#1234);
#16=OVER_RIDING_STYLED_ITEM('',(#1240),#1182,#1234);
#17=OVER_RIDING_STYLED_ITEM('',(#1241),#1183,#1234);
#18=OVER_RIDING_STYLED_ITEM('',(#1242),#1185,#1234);
#19=OVER_RIDING_STYLED_ITEM('',(#1243),#1186,#1234);
#20=OVER_RIDING_STYLED_ITEM('',(#1244),#1187,#1234);
#21=OVER_RIDING_STYLED_ITEM('',(#1245),#1190,#1234);
#22=OVER_RIDING_STYLED_ITEM('',(#1246),#1191,#1234);
#23=OVER_RIDING_STYLED_ITEM('',(#1247),#1192,#1234);
#24=OVER_RIDING_STYLED_ITEM('',(#1248),#1193,#1234);
#25=OVER_RIDING_STYLED_ITEM('',(#1249),#1194,#1234);
#26=OVER_RIDING_STYLED_ITEM('',(#1250),#1195,#1234);
#27=OVER_RIDING_STYLED_ITEM('',(#1251),#1196,#1234);
#28=OVER_RIDING_STYLED_ITEM('',(#1252),#1204,#1234);
#29=OVER_RIDING_STYLED_ITEM('',(#1253),#1205,#1234);
#30=OVER_RIDING_STYLED_ITEM('',(#1254),#1208,#1234);
#31=OVER_RIDING_STYLED_ITEM('',(#1255),#1209,#1234);
#32=OVER_RIDING_STYLED_ITEM('',(#1256),#1210,#1234);
#33=OVER_RIDING_STYLED_ITEM('',(#1257),#1216,#1234);
#34=OVER_RIDING_STYLED_ITEM('',(#1258),#1223,#1234);
#35=OVER_RIDING_STYLED_ITEM('',(#1259),#1224,#1234);
#36=OVER_RIDING_STYLED_ITEM('',(#1260),#1225,#1234);
#37=OVER_RIDING_STYLED_ITEM('',(#1261),#1226,#1234);
#38=OVER_RIDING_STYLED_ITEM('',(#1262),#1227,#1234);
#39=OVER_RIDING_STYLED_ITEM('',(#1263),#1228,#1234);
#40=ORIENTED_EDGE('',*,*,#370,.F.);
#41=ORIENTED_EDGE('',*,*,#371,.F.);
#42=ORIENTED_EDGE('',*,*,#372,.F.);
#43=ORIENTED_EDGE('',*,*,#373,.F.);
#44=ORIENTED_EDGE('',*,*,#373,.T.);
#45=ORIENTED_EDGE('',*,*,#374,.T.);
#46=ORIENTED_EDGE('',*,*,#375,.T.);
#47=ORIENTED_EDGE('',*,*,#376,.F.);
#48=ORIENTED_EDGE('',*,*,#377,.F.);
#49=ORIENTED_EDGE('',*,*,#378,.F.);
#50=ORIENTED_EDGE('',*,*,#379,.F.);
#51=ORIENTED_EDGE('',*,*,#371,.T.);
#52=ORIENTED_EDGE('',*,*,#377,.T.);
#53=ORIENTED_EDGE('',*,*,#370,.T.);
#54=ORIENTED_EDGE('',*,*,#376,.T.);
#55=ORIENTED_EDGE('',*,*,#380,.T.);
#56=ORIENTED_EDGE('',*,*,#381,.T.);
#57=ORIENTED_EDGE('',*,*,#382,.T.);
#58=ORIENTED_EDGE('',*,*,#383,.T.);
#59=ORIENTED_EDGE('',*,*,#384,.T.);
#60=ORIENTED_EDGE('',*,*,#385,.T.);
#61=ORIENTED_EDGE('',*,*,#386,.T.);
#62=ORIENTED_EDGE('',*,*,#387,.T.);
#63=ORIENTED_EDGE('',*,*,#388,.T.);
#64=ORIENTED_EDGE('',*,*,#389,.T.);
#65=ORIENTED_EDGE('',*,*,#390,.T.);
#66=ORIENTED_EDGE('',*,*,#391,.T.);
#67=ORIENTED_EDGE('',*,*,#392,.T.);
#68=ORIENTED_EDGE('',*,*,#393,.T.);
#69=ORIENTED_EDGE('',*,*,#394,.T.);
#70=ORIENTED_EDGE('',*,*,#395,.T.);
#71=ORIENTED_EDGE('',*,*,#396,.T.);
#72=ORIENTED_EDGE('',*,*,#397,.T.);
#73=ORIENTED_EDGE('',*,*,#398,.T.);
#74=ORIENTED_EDGE('',*,*,#399,.T.);
#75=ORIENTED_EDGE('',*,*,#400,.T.);
#76=ORIENTED_EDGE('',*,*,#401,.T.);
#77=ORIENTED_EDGE('',*,*,#402,.T.);
#78=ORIENTED_EDGE('',*,*,#403,.T.);
#79=ORIENTED_EDGE('',*,*,#404,.T.);
#80=ORIENTED_EDGE('',*,*,#405,.T.);
#81=ORIENTED_EDGE('',*,*,#406,.T.);
#82=ORIENTED_EDGE('',*,*,#407,.T.);
#83=ORIENTED_EDGE('',*,*,#408,.T.);
#84=ORIENTED_EDGE('',*,*,#409,.T.);
#85=ORIENTED_EDGE('',*,*,#410,.T.);
#86=ORIENTED_EDGE('',*,*,#411,.T.);
#87=ORIENTED_EDGE('',*,*,#412,.T.);
#88=ORIENTED_EDGE('',*,*,#413,.T.);
#89=ORIENTED_EDGE('',*,*,#414,.T.);
#90=ORIENTED_EDGE('',*,*,#415,.T.);
#91=ORIENTED_EDGE('',*,*,#416,.T.);
#92=ORIENTED_EDGE('',*,*,#417,.T.);
#93=ORIENTED_EDGE('',*,*,#418,.T.);
#94=ORIENTED_EDGE('',*,*,#419,.T.);
#95=ORIENTED_EDGE('',*,*,#420,.T.);
#96=ORIENTED_EDGE('',*,*,#421,.T.);
#97=ORIENTED_EDGE('',*,*,#422,.T.);
#98=ORIENTED_EDGE('',*,*,#374,.F.);
#99=ORIENTED_EDGE('',*,*,#372,.T.);
#100=ORIENTED_EDGE('',*,*,#379,.T.);
#101=ORIENTED_EDGE('',*,*,#423,.F.);
#102=ORIENTED_EDGE('',*,*,#424,.T.);
#103=ORIENTED_EDGE('',*,*,#425,.T.);
#104=ORIENTED_EDGE('',*,*,#426,.T.);
#105=ORIENTED_EDGE('',*,*,#427,.T.);
#106=ORIENTED_EDGE('',*,*,#428,.T.);
#107=ORIENTED_EDGE('',*,*,#429,.T.);
#108=ORIENTED_EDGE('',*,*,#430,.F.);
#109=ORIENTED_EDGE('',*,*,#431,.F.);
#110=ORIENTED_EDGE('',*,*,#380,.F.);
#111=ORIENTED_EDGE('',*,*,#375,.F.);
#112=ORIENTED_EDGE('',*,*,#422,.F.);
#113=ORIENTED_EDGE('',*,*,#432,.F.);
#114=ORIENTED_EDGE('',*,*,#378,.T.);
#115=ORIENTED_EDGE('',*,*,#384,.F.);
#116=ORIENTED_EDGE('',*,*,#433,.T.);
#117=ORIENTED_EDGE('',*,*,#434,.F.);
#118=ORIENTED_EDGE('',*,*,#435,.T.);
#119=ORIENTED_EDGE('',*,*,#423,.T.);
#120=ORIENTED_EDGE('',*,*,#436,.F.);
#121=ORIENTED_EDGE('',*,*,#437,.F.);
#122=ORIENTED_EDGE('',*,*,#398,.F.);
#123=ORIENTED_EDGE('',*,*,#438,.F.);
#124=ORIENTED_EDGE('',*,*,#439,.F.);
#125=ORIENTED_EDGE('',*,*,#440,.F.);
#126=ORIENTED_EDGE('',*,*,#441,.F.);
#127=ORIENTED_EDGE('',*,*,#393,.F.);
#128=ORIENTED_EDGE('',*,*,#442,.F.);
#129=ORIENTED_EDGE('',*,*,#443,.F.);
#130=ORIENTED_EDGE('',*,*,#444,.T.);
#131=ORIENTED_EDGE('',*,*,#387,.F.);
#132=ORIENTED_EDGE('',*,*,#395,.F.);
#133=ORIENTED_EDGE('',*,*,#445,.F.);
#134=ORIENTED_EDGE('',*,*,#446,.T.);
#135=ORIENTED_EDGE('',*,*,#447,.F.);
#136=ORIENTED_EDGE('',*,*,#448,.F.);
#137=ORIENTED_EDGE('',*,*,#449,.F.);
#138=ORIENTED_EDGE('',*,*,#400,.F.);
#139=ORIENTED_EDGE('',*,*,#450,.F.);
#140=ORIENTED_EDGE('',*,*,#451,.F.);
#141=ORIENTED_EDGE('',*,*,#452,.F.);
#142=ORIENTED_EDGE('',*,*,#453,.T.);
#143=ORIENTED_EDGE('',*,*,#391,.F.);
#144=ORIENTED_EDGE('',*,*,#454,.F.);
#145=ORIENTED_EDGE('',*,*,#382,.F.);
#146=ORIENTED_EDGE('',*,*,#455,.T.);
#147=ORIENTED_EDGE('',*,*,#456,.T.);
#148=ORIENTED_EDGE('',*,*,#457,.F.);
#149=ORIENTED_EDGE('',*,*,#458,.F.);
#150=ORIENTED_EDGE('',*,*,#459,.F.);
#151=ORIENTED_EDGE('',*,*,#385,.F.);
#152=ORIENTED_EDGE('',*,*,#460,.F.);
#153=ORIENTED_EDGE('',*,*,#450,.T.);
#154=ORIENTED_EDGE('',*,*,#399,.F.);
#155=ORIENTED_EDGE('',*,*,#437,.T.);
#156=ORIENTED_EDGE('',*,*,#453,.F.);
#157=ORIENTED_EDGE('',*,*,#461,.F.);
#158=ORIENTED_EDGE('',*,*,#462,.T.);
#159=ORIENTED_EDGE('',*,*,#392,.F.);
#160=ORIENTED_EDGE('',*,*,#381,.F.);
#161=ORIENTED_EDGE('',*,*,#431,.T.);
#162=ORIENTED_EDGE('',*,*,#463,.T.);
#163=ORIENTED_EDGE('',*,*,#455,.F.);
#164=ORIENTED_EDGE('',*,*,#433,.F.);
#165=ORIENTED_EDGE('',*,*,#383,.F.);
#166=ORIENTED_EDGE('',*,*,#454,.T.);
#167=ORIENTED_EDGE('',*,*,#464,.T.);
#168=ORIENTED_EDGE('',*,*,#386,.F.);
#169=ORIENTED_EDGE('',*,*,#459,.T.);
#170=ORIENTED_EDGE('',*,*,#465,.T.);
#171=ORIENTED_EDGE('',*,*,#442,.T.);
#172=ORIENTED_EDGE('',*,*,#396,.F.);
#173=ORIENTED_EDGE('',*,*,#447,.T.);
#174=ORIENTED_EDGE('',*,*,#466,.T.);
#175=ORIENTED_EDGE('',*,*,#439,.T.);
#176=ORIENTED_EDGE('',*,*,#394,.F.);
#177=ORIENTED_EDGE('',*,*,#441,.T.);
#178=ORIENTED_EDGE('',*,*,#467,.T.);
#179=ORIENTED_EDGE('',*,*,#445,.T.);
#180=ORIENTED_EDGE('',*,*,#462,.F.);
#181=ORIENTED_EDGE('',*,*,#468,.F.);
#182=ORIENTED_EDGE('',*,*,#469,.F.);
#183=ORIENTED_EDGE('',*,*,#389,.F.);
#184=ORIENTED_EDGE('',*,*,#444,.F.);
#185=ORIENTED_EDGE('',*,*,#470,.F.);
#186=ORIENTED_EDGE('',*,*,#457,.T.);
#187=ORIENTED_EDGE('',*,*,#388,.F.);
#188=ORIENTED_EDGE('',*,*,#438,.T.);
#189=ORIENTED_EDGE('',*,*,#397,.F.);
#190=ORIENTED_EDGE('',*,*,#449,.T.);
#191=ORIENTED_EDGE('',*,*,#471,.T.);
#192=ORIENTED_EDGE('',*,*,#390,.F.);
#193=ORIENTED_EDGE('',*,*,#469,.T.);
#194=ORIENTED_EDGE('',*,*,#472,.T.);
#195=ORIENTED_EDGE('',*,*,#451,.T.);
#196=ORIENTED_EDGE('',*,*,#425,.F.);
#197=ORIENTED_EDGE('',*,*,#473,.F.);
#198=ORIENTED_EDGE('',*,*,#474,.F.);
#199=ORIENTED_EDGE('',*,*,#475,.T.);
#200=ORIENTED_EDGE('',*,*,#476,.F.);
#201=ORIENTED_EDGE('',*,*,#428,.F.);
#202=ORIENTED_EDGE('',*,*,#477,.T.);
#203=ORIENTED_EDGE('',*,*,#478,.F.);
#204=ORIENTED_EDGE('',*,*,#479,.T.);
#205=ORIENTED_EDGE('',*,*,#480,.T.);
#206=ORIENTED_EDGE('',*,*,#481,.T.);
#207=ORIENTED_EDGE('',*,*,#402,.F.);
#208=ORIENTED_EDGE('',*,*,#482,.T.);
#209=ORIENTED_EDGE('',*,*,#483,.F.);
#210=ORIENTED_EDGE('',*,*,#484,.T.);
#211=ORIENTED_EDGE('',*,*,#406,.F.);
#212=ORIENTED_EDGE('',*,*,#485,.T.);
#213=ORIENTED_EDGE('',*,*,#426,.F.);
#214=ORIENTED_EDGE('',*,*,#475,.F.);
#215=ORIENTED_EDGE('',*,*,#486,.F.);
#216=ORIENTED_EDGE('',*,*,#487,.F.);
#217=ORIENTED_EDGE('',*,*,#488,.T.);
#218=ORIENTED_EDGE('',*,*,#420,.F.);
#219=ORIENTED_EDGE('',*,*,#489,.T.);
#220=ORIENTED_EDGE('',*,*,#416,.F.);
#221=ORIENTED_EDGE('',*,*,#490,.F.);
#222=ORIENTED_EDGE('',*,*,#491,.F.);
#223=ORIENTED_EDGE('',*,*,#492,.T.);
#224=ORIENTED_EDGE('',*,*,#408,.F.);
#225=ORIENTED_EDGE('',*,*,#493,.T.);
#226=ORIENTED_EDGE('',*,*,#494,.F.);
#227=ORIENTED_EDGE('',*,*,#495,.T.);
#228=ORIENTED_EDGE('',*,*,#404,.F.);
#229=ORIENTED_EDGE('',*,*,#496,.F.);
#230=ORIENTED_EDGE('',*,*,#497,.F.);
#231=ORIENTED_EDGE('',*,*,#498,.T.);
#232=ORIENTED_EDGE('',*,*,#499,.T.);
#233=ORIENTED_EDGE('',*,*,#500,.T.);
#234=ORIENTED_EDGE('',*,*,#411,.F.);
#235=ORIENTED_EDGE('',*,*,#501,.F.);
#236=ORIENTED_EDGE('',*,*,#473,.T.);
#237=ORIENTED_EDGE('',*,*,#424,.F.);
#238=ORIENTED_EDGE('',*,*,#435,.F.);
#239=ORIENTED_EDGE('',*,*,#502,.T.);
#240=ORIENTED_EDGE('',*,*,#503,.T.);
#241=ORIENTED_EDGE('',*,*,#504,.F.);
#242=ORIENTED_EDGE('',*,*,#505,.F.);
#243=ORIENTED_EDGE('',*,*,#418,.F.);
#244=ORIENTED_EDGE('',*,*,#413,.F.);
#245=ORIENTED_EDGE('',*,*,#506,.F.);
#246=ORIENTED_EDGE('',*,*,#507,.F.);
#247=ORIENTED_EDGE('',*,*,#508,.F.);
#248=ORIENTED_EDGE('',*,*,#412,.F.);
#249=ORIENTED_EDGE('',*,*,#500,.F.);
#250=ORIENTED_EDGE('',*,*,#509,.F.);
#251=ORIENTED_EDGE('',*,*,#506,.T.);
#252=ORIENTED_EDGE('',*,*,#510,.T.);
#253=ORIENTED_EDGE('',*,*,#496,.T.);
#254=ORIENTED_EDGE('',*,*,#403,.F.);
#255=ORIENTED_EDGE('',*,*,#481,.F.);
#256=ORIENTED_EDGE('',*,*,#492,.F.);
#257=ORIENTED_EDGE('',*,*,#511,.F.);
#258=ORIENTED_EDGE('',*,*,#503,.F.);
#259=ORIENTED_EDGE('',*,*,#417,.F.);
#260=ORIENTED_EDGE('',*,*,#482,.F.);
#261=ORIENTED_EDGE('',*,*,#401,.F.);
#262=ORIENTED_EDGE('',*,*,#512,.T.);
#263=ORIENTED_EDGE('',*,*,#513,.F.);
#264=ORIENTED_EDGE('',*,*,#514,.F.);
#265=ORIENTED_EDGE('',*,*,#490,.T.);
#266=ORIENTED_EDGE('',*,*,#415,.F.);
#267=ORIENTED_EDGE('',*,*,#515,.F.);
#268=ORIENTED_EDGE('',*,*,#429,.F.);
#269=ORIENTED_EDGE('',*,*,#476,.T.);
#270=ORIENTED_EDGE('',*,*,#516,.F.);
#271=ORIENTED_EDGE('',*,*,#512,.F.);
#272=ORIENTED_EDGE('',*,*,#488,.F.);
#273=ORIENTED_EDGE('',*,*,#517,.F.);
#274=ORIENTED_EDGE('',*,*,#432,.T.);
#275=ORIENTED_EDGE('',*,*,#421,.F.);
#276=ORIENTED_EDGE('',*,*,#405,.F.);
#277=ORIENTED_EDGE('',*,*,#498,.F.);
#278=ORIENTED_EDGE('',*,*,#518,.F.);
#279=ORIENTED_EDGE('',*,*,#479,.F.);
#280=ORIENTED_EDGE('',*,*,#407,.F.);
#281=ORIENTED_EDGE('',*,*,#484,.F.);
#282=ORIENTED_EDGE('',*,*,#519,.F.);
#283=ORIENTED_EDGE('',*,*,#493,.F.);
#284=ORIENTED_EDGE('',*,*,#485,.F.);
#285=ORIENTED_EDGE('',*,*,#520,.F.);
#286=ORIENTED_EDGE('',*,*,#477,.F.);
#287=ORIENTED_EDGE('',*,*,#427,.F.);
#288=ORIENTED_EDGE('',*,*,#489,.F.);
#289=ORIENTED_EDGE('',*,*,#419,.F.);
#290=ORIENTED_EDGE('',*,*,#505,.T.);
#291=ORIENTED_EDGE('',*,*,#521,.F.);
#292=ORIENTED_EDGE('',*,*,#508,.T.);
#293=ORIENTED_EDGE('',*,*,#522,.T.);
#294=ORIENTED_EDGE('',*,*,#501,.T.);
#295=ORIENTED_EDGE('',*,*,#410,.F.);
#296=ORIENTED_EDGE('',*,*,#523,.T.);
#297=ORIENTED_EDGE('',*,*,#524,.F.);
#298=ORIENTED_EDGE('',*,*,#515,.T.);
#299=ORIENTED_EDGE('',*,*,#414,.F.);
#300=ORIENTED_EDGE('',*,*,#523,.F.);
#301=ORIENTED_EDGE('',*,*,#409,.F.);
#302=ORIENTED_EDGE('',*,*,#495,.F.);
#303=ORIENTED_EDGE('',*,*,#525,.F.);
#304=ORIENTED_EDGE('',*,*,#464,.F.);
#305=ORIENTED_EDGE('',*,*,#456,.F.);
#306=ORIENTED_EDGE('',*,*,#463,.F.);
#307=ORIENTED_EDGE('',*,*,#430,.T.);
#308=ORIENTED_EDGE('',*,*,#517,.T.);
#309=ORIENTED_EDGE('',*,*,#487,.T.);
#310=ORIENTED_EDGE('',*,*,#521,.T.);
#311=ORIENTED_EDGE('',*,*,#504,.T.);
#312=ORIENTED_EDGE('',*,*,#511,.T.);
#313=ORIENTED_EDGE('',*,*,#491,.T.);
#314=ORIENTED_EDGE('',*,*,#514,.T.);
#315=ORIENTED_EDGE('',*,*,#524,.T.);
#316=ORIENTED_EDGE('',*,*,#525,.T.);
#317=ORIENTED_EDGE('',*,*,#494,.T.);
#318=ORIENTED_EDGE('',*,*,#519,.T.);
#319=ORIENTED_EDGE('',*,*,#483,.T.);
#320=ORIENTED_EDGE('',*,*,#513,.T.);
#321=ORIENTED_EDGE('',*,*,#516,.T.);
#322=ORIENTED_EDGE('',*,*,#478,.T.);
#323=ORIENTED_EDGE('',*,*,#520,.T.);
#324=ORIENTED_EDGE('',*,*,#486,.T.);
#325=ORIENTED_EDGE('',*,*,#474,.T.);
#326=ORIENTED_EDGE('',*,*,#502,.F.);
#327=ORIENTED_EDGE('',*,*,#434,.T.);
#328=ORIENTED_EDGE('',*,*,#526,.T.);
#329=ORIENTED_EDGE('',*,*,#527,.T.);
#330=ORIENTED_EDGE('',*,*,#528,.T.);
#331=ORIENTED_EDGE('',*,*,#436,.T.);
#332=ORIENTED_EDGE('',*,*,#471,.F.);
#333=ORIENTED_EDGE('',*,*,#448,.T.);
#334=ORIENTED_EDGE('',*,*,#460,.T.);
#335=ORIENTED_EDGE('',*,*,#446,.F.);
#336=ORIENTED_EDGE('',*,*,#467,.F.);
#337=ORIENTED_EDGE('',*,*,#440,.T.);
#338=ORIENTED_EDGE('',*,*,#466,.F.);
#339=ORIENTED_EDGE('',*,*,#443,.T.);
#340=ORIENTED_EDGE('',*,*,#465,.F.);
#341=ORIENTED_EDGE('',*,*,#458,.T.);
#342=ORIENTED_EDGE('',*,*,#470,.T.);
#343=ORIENTED_EDGE('',*,*,#452,.T.);
#344=ORIENTED_EDGE('',*,*,#472,.F.);
#345=ORIENTED_EDGE('',*,*,#468,.T.);
#346=ORIENTED_EDGE('',*,*,#461,.T.);
#347=ORIENTED_EDGE('',*,*,#518,.T.);
#348=ORIENTED_EDGE('',*,*,#497,.T.);
#349=ORIENTED_EDGE('',*,*,#510,.F.);
#350=ORIENTED_EDGE('',*,*,#480,.F.);
#351=ORIENTED_EDGE('',*,*,#507,.T.);
#352=ORIENTED_EDGE('',*,*,#509,.T.);
#353=ORIENTED_EDGE('',*,*,#499,.F.);
#354=ORIENTED_EDGE('',*,*,#522,.F.);
#355=ORIENTED_EDGE('',*,*,#529,.T.);
#356=ORIENTED_EDGE('',*,*,#530,.F.);
#357=ORIENTED_EDGE('',*,*,#531,.T.);
#358=ORIENTED_EDGE('',*,*,#528,.F.);
#359=ORIENTED_EDGE('',*,*,#532,.F.);
#360=ORIENTED_EDGE('',*,*,#533,.F.);
#361=ORIENTED_EDGE('',*,*,#529,.F.);
#362=ORIENTED_EDGE('',*,*,#527,.F.);
#363=ORIENTED_EDGE('',*,*,#531,.F.);
#364=ORIENTED_EDGE('',*,*,#534,.F.);
#365=ORIENTED_EDGE('',*,*,#532,.T.);
#366=ORIENTED_EDGE('',*,*,#526,.F.);
#367=ORIENTED_EDGE('',*,*,#530,.T.);
#368=ORIENTED_EDGE('',*,*,#533,.T.);
#369=ORIENTED_EDGE('',*,*,#534,.T.);
#370=EDGE_CURVE('NONE',#535,#536,#645,.F.);
#371=EDGE_CURVE('NONE',#537,#535,#646,.F.);
#372=EDGE_CURVE('NONE',#538,#537,#647,.T.);
#373=EDGE_CURVE('NONE',#536,#538,#648,.T.);
#374=EDGE_CURVE('NONE',#538,#539,#649,.F.);
#375=EDGE_CURVE('NONE',#539,#540,#650,.F.);
#376=EDGE_CURVE('NONE',#536,#540,#651,.T.);
#377=EDGE_CURVE('NONE',#541,#535,#652,.T.);
#378=EDGE_CURVE('NONE',#542,#541,#653,.F.);
#379=EDGE_CURVE('NONE',#537,#542,#654,.T.);
#380=EDGE_CURVE('NONE',#540,#543,#655,.F.);
#381=EDGE_CURVE('NONE',#543,#544,#656,.T.);
#382=EDGE_CURVE('NONE',#544,#545,#657,.T.);
#383=EDGE_CURVE('NONE',#545,#546,#658,.F.);
#384=EDGE_CURVE('NONE',#546,#541,#659,.F.);
#385=EDGE_CURVE('NONE',#547,#548,#660,.T.);
#386=EDGE_CURVE('NONE',#548,#549,#661,.T.);
#387=EDGE_CURVE('NONE',#549,#550,#662,.F.);
#388=EDGE_CURVE('NONE',#550,#547,#663,.F.);
#389=EDGE_CURVE('NONE',#551,#552,#664,.T.);
#390=EDGE_CURVE('NONE',#552,#553,#665,.T.);
#391=EDGE_CURVE('NONE',#553,#554,#666,.F.);
#392=EDGE_CURVE('NONE',#554,#551,#667,.F.);
#393=EDGE_CURVE('NONE',#555,#556,#668,.T.);
#394=EDGE_CURVE('NONE',#556,#557,#669,.F.);
#395=EDGE_CURVE('NONE',#557,#558,#670,.F.);
#396=EDGE_CURVE('NONE',#558,#555,#671,.T.);
#397=EDGE_CURVE('NONE',#559,#560,#672,.T.);
#398=EDGE_CURVE('NONE',#560,#561,#673,.F.);
#399=EDGE_CURVE('NONE',#561,#562,#674,.F.);
#400=EDGE_CURVE('NONE',#562,#559,#675,.T.);
#401=EDGE_CURVE('NONE',#563,#564,#676,.F.);
#402=EDGE_CURVE('NONE',#564,#565,#677,.F.);
#403=EDGE_CURVE('NONE',#565,#566,#678,.T.);
#404=EDGE_CURVE('NONE',#566,#567,#679,.F.);
#405=EDGE_CURVE('NONE',#567,#568,#680,.F.);
#406=EDGE_CURVE('NONE',#568,#569,#681,.F.);
#407=EDGE_CURVE('NONE',#569,#570,#682,.F.);
#408=EDGE_CURVE('NONE',#570,#571,#683,.F.);
#409=EDGE_CURVE('NONE',#571,#572,#684,.T.);
#410=EDGE_CURVE('NONE',#572,#573,#685,.F.);
#411=EDGE_CURVE('NONE',#573,#574,#686,.T.);
#412=EDGE_CURVE('NONE',#574,#575,#687,.F.);
#413=EDGE_CURVE('NONE',#575,#576,#688,.F.);
#414=EDGE_CURVE('NONE',#576,#577,#689,.F.);
#415=EDGE_CURVE('NONE',#577,#578,#690,.T.);
#416=EDGE_CURVE('NONE',#578,#579,#691,.T.);
#417=EDGE_CURVE('NONE',#579,#580,#692,.T.);
#418=EDGE_CURVE('NONE',#580,#581,#693,.F.);
#419=EDGE_CURVE('NONE',#581,#582,#694,.T.);
#420=EDGE_CURVE('NONE',#582,#583,#695,.T.);
#421=EDGE_CURVE('NONE',#583,#584,#696,.T.);
#422=EDGE_CURVE('NONE',#584,#539,#697,.T.);
#423=EDGE_CURVE('NONE',#585,#542,#698,.F.);
#424=EDGE_CURVE('NONE',#585,#586,#699,.F.);
#425=EDGE_CURVE('NONE',#586,#587,#700,.T.);
#426=EDGE_CURVE('NONE',#587,#588,#701,.F.);
#427=EDGE_CURVE('NONE',#588,#589,#702,.F.);
#428=EDGE_CURVE('NONE',#589,#590,#703,.F.);
#429=EDGE_CURVE('NONE',#590,#563,#704,.T.);
#430=EDGE_CURVE('NONE',#591,#592,#705,.T.);
#431=EDGE_CURVE('NONE',#543,#591,#706,.T.);
#432=EDGE_CURVE('NONE',#592,#584,#707,.F.);
#433=EDGE_CURVE('NONE',#546,#593,#708,.T.);
#434=EDGE_CURVE('NONE',#594,#593,#709,.T.);
#435=EDGE_CURVE('NONE',#594,#585,#710,.F.);
#436=EDGE_CURVE('NONE',#595,#596,#711,.T.);
#437=EDGE_CURVE('NONE',#561,#595,#712,.F.);
#438=EDGE_CURVE('NONE',#596,#560,#713,.T.);
#439=EDGE_CURVE('NONE',#597,#555,#714,.T.);
#440=EDGE_CURVE('NONE',#598,#597,#715,.F.);
#441=EDGE_CURVE('NONE',#556,#598,#716,.F.);
#442=EDGE_CURVE('NONE',#599,#549,#717,.T.);
#443=EDGE_CURVE('NONE',#600,#599,#718,.T.);
#444=EDGE_CURVE('NONE',#600,#550,#719,.T.);
#445=EDGE_CURVE('NONE',#601,#557,#720,.T.);
#446=EDGE_CURVE('NONE',#601,#602,#721,.T.);
#447=EDGE_CURVE('NONE',#558,#602,#722,.F.);
#448=EDGE_CURVE('NONE',#603,#604,#723,.F.);
#449=EDGE_CURVE('NONE',#559,#603,#724,.F.);
#450=EDGE_CURVE('NONE',#604,#562,#725,.T.);
#451=EDGE_CURVE('NONE',#605,#553,#726,.T.);
#452=EDGE_CURVE('NONE',#606,#605,#727,.T.);
#453=EDGE_CURVE('NONE',#606,#554,#728,.T.);
#454=EDGE_CURVE('NONE',#545,#607,#729,.T.);
#455=EDGE_CURVE('NONE',#544,#608,#730,.T.);
#456=EDGE_CURVE('NONE',#608,#607,#731,.F.);
#457=EDGE_CURVE('NONE',#609,#547,#732,.T.);
#458=EDGE_CURVE('NONE',#610,#609,#733,.F.);
#459=EDGE_CURVE('NONE',#548,#610,#734,.F.);
#460=EDGE_CURVE('NONE',#604,#595,#735,.F.);
#461=EDGE_CURVE('NONE',#611,#606,#736,.F.);
#462=EDGE_CURVE('NONE',#611,#551,#737,.T.);
#463=EDGE_CURVE('NONE',#591,#608,#738,.F.);
#464=EDGE_CURVE('NONE',#607,#593,#739,.F.);
#465=EDGE_CURVE('NONE',#610,#599,#740,.T.);
#466=EDGE_CURVE('NONE',#602,#597,#741,.T.);
#467=EDGE_CURVE('NONE',#598,#601,#742,.T.);
#468=EDGE_CURVE('NONE',#612,#611,#743,.F.);
#469=EDGE_CURVE('NONE',#552,#612,#744,.F.);
#470=EDGE_CURVE('NONE',#609,#600,#745,.F.);
#471=EDGE_CURVE('NONE',#603,#596,#746,.T.);
#472=EDGE_CURVE('NONE',#612,#605,#747,.T.);
#473=EDGE_CURVE('NONE',#613,#586,#748,.F.);
#474=EDGE_CURVE('NONE',#614,#613,#749,.F.);
#475=EDGE_CURVE('NONE',#614,#587,#750,.F.);
#476=EDGE_CURVE('NONE',#590,#615,#751,.T.);
#477=EDGE_CURVE('NONE',#589,#616,#752,.T.);
#478=EDGE_CURVE('NONE',#615,#616,#753,.T.);
#479=EDGE_CURVE('NONE',#568,#617,#754,.T.);
#480=EDGE_CURVE('NONE',#617,#618,#755,.T.);
#481=EDGE_CURVE('NONE',#618,#565,#756,.F.);
#482=EDGE_CURVE('NONE',#564,#619,#757,.T.);
#483=EDGE_CURVE('NONE',#620,#619,#758,.T.);
#484=EDGE_CURVE('NONE',#620,#569,#759,.F.);
#485=EDGE_CURVE('NONE',#621,#588,#760,.F.);
#486=EDGE_CURVE('NONE',#621,#614,#761,.T.);
#487=EDGE_CURVE('NONE',#622,#623,#762,.F.);
#488=EDGE_CURVE('NONE',#622,#583,#763,.F.);
#489=EDGE_CURVE('NONE',#582,#623,#764,.T.);
#490=EDGE_CURVE('NONE',#624,#578,#765,.F.);
#491=EDGE_CURVE('NONE',#625,#624,#766,.F.);
#492=EDGE_CURVE('NONE',#625,#579,#767,.F.);
#493=EDGE_CURVE('NONE',#570,#626,#768,.T.);
#494=EDGE_CURVE('NONE',#627,#626,#769,.T.);
#495=EDGE_CURVE('NONE',#627,#571,#770,.F.);
#496=EDGE_CURVE('NONE',#628,#566,#771,.F.);
#497=EDGE_CURVE('NONE',#629,#628,#772,.T.);
#498=EDGE_CURVE('NONE',#629,#567,#773,.F.);
#499=EDGE_CURVE('NONE',#630,#631,#774,.F.);
#500=EDGE_CURVE('NONE',#631,#574,#775,.F.);
#501=EDGE_CURVE('NONE',#630,#573,#776,.F.);
#502=EDGE_CURVE('NONE',#594,#613,#777,.F.);
#503=EDGE_CURVE('NONE',#580,#632,#778,.T.);
#504=EDGE_CURVE('NONE',#633,#632,#779,.T.);
#505=EDGE_CURVE('NONE',#581,#633,#780,.T.);
#506=EDGE_CURVE('NONE',#634,#575,#781,.F.);
#507=EDGE_CURVE('NONE',#635,#634,#782,.F.);
#508=EDGE_CURVE('NONE',#576,#635,#783,.T.);
#509=EDGE_CURVE('NONE',#634,#631,#784,.T.);
#510=EDGE_CURVE('NONE',#618,#628,#785,.F.);
#511=EDGE_CURVE('NONE',#632,#625,#786,.F.);
#512=EDGE_CURVE('NONE',#563,#636,#787,.T.);
#513=EDGE_CURVE('NONE',#619,#636,#788,.T.);
#514=EDGE_CURVE('NONE',#624,#637,#789,.F.);
#515=EDGE_CURVE('NONE',#637,#577,#790,.F.);
#516=EDGE_CURVE('NONE',#636,#615,#791,.F.);
#517=EDGE_CURVE('NONE',#592,#622,#792,.F.);
#518=EDGE_CURVE('NONE',#617,#629,#793,.F.);
#519=EDGE_CURVE('NONE',#626,#620,#794,.T.);
#520=EDGE_CURVE('NONE',#616,#621,#795,.T.);
#521=EDGE_CURVE('NONE',#623,#633,#796,.F.);
#522=EDGE_CURVE('NONE',#635,#630,#797,.T.);
#523=EDGE_CURVE('NONE',#572,#638,#798,.T.);
#524=EDGE_CURVE('NONE',#637,#638,#799,.T.);
#525=EDGE_CURVE('NONE',#638,#627,#800,.F.);
#526=EDGE_CURVE('NONE',#639,#640,#801,.T.);
#527=EDGE_CURVE('NONE',#640,#641,#802,.T.);
#528=EDGE_CURVE('NONE',#641,#639,#803,.F.);
#529=EDGE_CURVE('NONE',#641,#642,#804,.F.);
#530=EDGE_CURVE('NONE',#643,#642,#805,.T.);
#531=EDGE_CURVE('NONE',#643,#639,#806,.T.);
#532=EDGE_CURVE('NONE',#644,#640,#807,.T.);
#533=EDGE_CURVE('NONE',#642,#644,#808,.T.);
#534=EDGE_CURVE('NONE',#644,#643,#809,.T.);
#535=VERTEX_POINT('',#1771);
#536=VERTEX_POINT('',#1772);
#537=VERTEX_POINT('',#1774);
#538=VERTEX_POINT('',#1776);
#539=VERTEX_POINT('',#1780);
#540=VERTEX_POINT('',#1782);
#541=VERTEX_POINT('',#1786);
#542=VERTEX_POINT('',#1788);
#543=VERTEX_POINT('',#1792);
#544=VERTEX_POINT('',#1794);
#545=VERTEX_POINT('',#1796);
#546=VERTEX_POINT('',#1798);
#547=VERTEX_POINT('',#1801);
#548=VERTEX_POINT('',#1802);
#549=VERTEX_POINT('',#1804);
#550=VERTEX_POINT('',#1806);
#551=VERTEX_POINT('',#1809);
#552=VERTEX_POINT('',#1810);
#553=VERTEX_POINT('',#1812);
#554=VERTEX_POINT('',#1814);
#555=VERTEX_POINT('',#1817);
#556=VERTEX_POINT('',#1818);
#557=VERTEX_POINT('',#1820);
#558=VERTEX_POINT('',#1822);
#559=VERTEX_POINT('',#1825);
#560=VERTEX_POINT('',#1826);
#561=VERTEX_POINT('',#1828);
#562=VERTEX_POINT('',#1830);
#563=VERTEX_POINT('',#1834);
#564=VERTEX_POINT('',#1835);
#565=VERTEX_POINT('',#1837);
#566=VERTEX_POINT('',#1839);
#567=VERTEX_POINT('',#1841);
#568=VERTEX_POINT('',#1843);
#569=VERTEX_POINT('',#1845);
#570=VERTEX_POINT('',#1847);
#571=VERTEX_POINT('',#1849);
#572=VERTEX_POINT('',#1851);
#573=VERTEX_POINT('',#1853);
#574=VERTEX_POINT('',#1855);
#575=VERTEX_POINT('',#1857);
#576=VERTEX_POINT('',#1859);
#577=VERTEX_POINT('',#1861);
#578=VERTEX_POINT('',#1863);
#579=VERTEX_POINT('',#1865);
#580=VERTEX_POINT('',#1867);
#581=VERTEX_POINT('',#1869);
#582=VERTEX_POINT('',#1871);
#583=VERTEX_POINT('',#1873);
#584=VERTEX_POINT('',#1875);
#585=VERTEX_POINT('',#1878);
#586=VERTEX_POINT('',#1880);
#587=VERTEX_POINT('',#1882);
#588=VERTEX_POINT('',#1884);
#589=VERTEX_POINT('',#1886);
#590=VERTEX_POINT('',#1888);
#591=VERTEX_POINT('',#1892);
#592=VERTEX_POINT('',#1893);
#593=VERTEX_POINT('',#1898);
#594=VERTEX_POINT('',#1900);
#595=VERTEX_POINT('',#1904);
#596=VERTEX_POINT('',#1905);
#597=VERTEX_POINT('',#1910);
#598=VERTEX_POINT('',#1912);
#599=VERTEX_POINT('',#1916);
#600=VERTEX_POINT('',#1918);
#601=VERTEX_POINT('',#1922);
#602=VERTEX_POINT('',#1924);
#603=VERTEX_POINT('',#1928);
#604=VERTEX_POINT('',#1929);
#605=VERTEX_POINT('',#1934);
#606=VERTEX_POINT('',#1936);
#607=VERTEX_POINT('',#1940);
#608=VERTEX_POINT('',#1942);
#609=VERTEX_POINT('',#1946);
#610=VERTEX_POINT('',#1948);
#611=VERTEX_POINT('',#1954);
#612=VERTEX_POINT('',#1968);
#613=VERTEX_POINT('',#1978);
#614=VERTEX_POINT('',#1980);
#615=VERTEX_POINT('',#1984);
#616=VERTEX_POINT('',#1986);
#617=VERTEX_POINT('',#1990);
#618=VERTEX_POINT('',#1992);
#619=VERTEX_POINT('',#1995);
#620=VERTEX_POINT('',#1997);
#621=VERTEX_POINT('',#2001);
#622=VERTEX_POINT('',#2005);
#623=VERTEX_POINT('',#2006);
#624=VERTEX_POINT('',#2011);
#625=VERTEX_POINT('',#2013);
#626=VERTEX_POINT('',#2017);
#627=VERTEX_POINT('',#2019);
#628=VERTEX_POINT('',#2023);
#629=VERTEX_POINT('',#2025);
#630=VERTEX_POINT('',#2029);
#631=VERTEX_POINT('',#2030);
#632=VERTEX_POINT('',#2037);
#633=VERTEX_POINT('',#2039);
#634=VERTEX_POINT('',#2043);
#635=VERTEX_POINT('',#2045);
#636=VERTEX_POINT('',#2055);
#637=VERTEX_POINT('',#2059);
#638=VERTEX_POINT('',#2076);
#639=VERTEX_POINT('',#2082);
#640=VERTEX_POINT('',#2083);
#641=VERTEX_POINT('',#2085);
#642=VERTEX_POINT('',#2095);
#643=VERTEX_POINT('',#2097);
#644=VERTEX_POINT('',#2101);
#645=LINE('',#1770,#810);
#646=LINE('',#1773,#811);
#647=LINE('',#1775,#812);
#648=LINE('',#1777,#813);
#649=LINE('',#1779,#814);
#650=LINE('',#1781,#815);
#651=LINE('',#1783,#816);
#652=LINE('',#1785,#817);
#653=LINE('',#1787,#818);
#654=LINE('',#1789,#819);
#655=LINE('',#1791,#820);
#656=LINE('',#1793,#821);
#657=LINE('',#1795,#822);
#658=LINE('',#1797,#823);
#659=LINE('',#1799,#824);
#660=LINE('',#1800,#825);
#661=LINE('',#1803,#826);
#662=LINE('',#1805,#827);
#663=LINE('',#1807,#828);
#664=LINE('',#1808,#829);
#665=LINE('',#1811,#830);
#666=LINE('',#1813,#831);
#667=LINE('',#1815,#832);
#668=LINE('',#1816,#833);
#669=LINE('',#1819,#834);
#670=LINE('',#1821,#835);
#671=LINE('',#1823,#836);
#672=LINE('',#1824,#837);
#673=LINE('',#1827,#838);
#674=LINE('',#1829,#839);
#675=LINE('',#1831,#840);
#676=LINE('',#1833,#841);
#677=LINE('',#1836,#842);
#678=LINE('',#1838,#843);
#679=LINE('',#1840,#844);
#680=LINE('',#1842,#845);
#681=LINE('',#1844,#846);
#682=LINE('',#1846,#847);
#683=LINE('',#1848,#848);
#684=LINE('',#1850,#849);
#685=LINE('',#1852,#850);
#686=LINE('',#1854,#851);
#687=LINE('',#1856,#852);
#688=LINE('',#1858,#853);
#689=LINE('',#1860,#854);
#690=LINE('',#1862,#855);
#691=LINE('',#1864,#856);
#692=LINE('',#1866,#857);
#693=LINE('',#1868,#858);
#694=LINE('',#1870,#859);
#695=LINE('',#1872,#860);
#696=LINE('',#1874,#861);
#697=LINE('',#1876,#862);
#698=LINE('',#1877,#863);
#699=LINE('',#1879,#864);
#700=LINE('',#1881,#865);
#701=LINE('',#1883,#866);
#702=LINE('',#1885,#867);
#703=LINE('',#1887,#868);
#704=LINE('',#1889,#869);
#705=LINE('',#1891,#870);
#706=LINE('',#1894,#871);
#707=LINE('',#1895,#872);
#708=LINE('',#1897,#873);
#709=LINE('',#1899,#874);
#710=LINE('',#1901,#875);
#711=LINE('',#1903,#876);
#712=LINE('',#1906,#877);
#713=LINE('',#1907,#878);
#714=LINE('',#1909,#879);
#715=LINE('',#1911,#880);
#716=LINE('',#1913,#881);
#717=LINE('',#1915,#882);
#718=LINE('',#1917,#883);
#719=LINE('',#1919,#884);
#720=LINE('',#1921,#885);
#721=LINE('',#1923,#886);
#722=LINE('',#1925,#887);
#723=LINE('',#1927,#888);
#724=LINE('',#1930,#889);
#725=LINE('',#1931,#890);
#726=LINE('',#1933,#891);
#727=LINE('',#1935,#892);
#728=LINE('',#1937,#893);
#729=LINE('',#1939,#894);
#730=LINE('',#1941,#895);
#731=LINE('',#1943,#896);
#732=LINE('',#1945,#897);
#733=LINE('',#1947,#898);
#734=LINE('',#1949,#899);
#735=LINE('',#1951,#900);
#736=LINE('',#1953,#901);
#737=LINE('',#1955,#902);
#738=LINE('',#1957,#903);
#739=LINE('',#1959,#904);
#740=LINE('',#1961,#905);
#741=LINE('',#1963,#906);
#742=LINE('',#1965,#907);
#743=LINE('',#1967,#908);
#744=LINE('',#1969,#909);
#745=LINE('',#1971,#910);
#746=LINE('',#1973,#911);
#747=LINE('',#1975,#912);
#748=LINE('',#1977,#913);
#749=LINE('',#1979,#914);
#750=LINE('',#1981,#915);
#751=LINE('',#1983,#916);
#752=LINE('',#1985,#917);
#753=LINE('',#1987,#918);
#754=LINE('',#1989,#919);
#755=LINE('',#1991,#920);
#756=LINE('',#1993,#921);
#757=LINE('',#1994,#922);
#758=LINE('',#1996,#923);
#759=LINE('',#1998,#924);
#760=LINE('',#2000,#925);
#761=LINE('',#2002,#926);
#762=LINE('',#2004,#927);
#763=LINE('',#2007,#928);
#764=LINE('',#2008,#929);
#765=LINE('',#2010,#930);
#766=LINE('',#2012,#931);
#767=LINE('',#2014,#932);
#768=LINE('',#2016,#933);
#769=LINE('',#2018,#934);
#770=LINE('',#2020,#935);
#771=LINE('',#2022,#936);
#772=LINE('',#2024,#937);
#773=LINE('',#2026,#938);
#774=LINE('',#2028,#939);
#775=LINE('',#2031,#940);
#776=LINE('',#2032,#941);
#777=LINE('',#2034,#942);
#778=LINE('',#2036,#943);
#779=LINE('',#2038,#944);
#780=LINE('',#2040,#945);
#781=LINE('',#2042,#946);
#782=LINE('',#2044,#947);
#783=LINE('',#2046,#948);
#784=LINE('',#2048,#949);
#785=LINE('',#2050,#950);
#786=LINE('',#2052,#951);
#787=LINE('',#2054,#952);
#788=LINE('',#2056,#953);
#789=LINE('',#2058,#954);
#790=LINE('',#2060,#955);
#791=LINE('',#2062,#956);
#792=LINE('',#2064,#957);
#793=LINE('',#2066,#958);
#794=LINE('',#2068,#959);
#795=LINE('',#2070,#960);
#796=LINE('',#2072,#961);
#797=LINE('',#2074,#962);
#798=LINE('',#2075,#963);
#799=LINE('',#2077,#964);
#800=LINE('',#2079,#965);
#801=LINE('',#2081,#966);
#802=LINE('',#2084,#967);
#803=LINE('',#2086,#968);
#804=LINE('',#2094,#969);
#805=LINE('',#2096,#970);
#806=LINE('',#2098,#971);
#807=LINE('',#2100,#972);
#808=LINE('',#2102,#973);
#809=LINE('',#2104,#974);
#810=VECTOR('',#1481,1.);
#811=VECTOR('',#1482,1.);
#812=VECTOR('',#1483,1.);
#813=VECTOR('',#1484,1.);
#814=VECTOR('',#1487,1.);
#815=VECTOR('',#1488,1.);
#816=VECTOR('',#1489,1.);
#817=VECTOR('',#1492,1.);
#818=VECTOR('',#1493,1.);
#819=VECTOR('',#1494,1.);
#820=VECTOR('',#1497,1.);
#821=VECTOR('',#1498,1.);
#822=VECTOR('',#1499,1.);
#823=VECTOR('',#1500,1.);
#824=VECTOR('',#1501,1.);
#825=VECTOR('',#1502,1.);
#826=VECTOR('',#1503,1.);
#827=VECTOR('',#1504,1.);
#828=VECTOR('',#1505,1.);
#829=VECTOR('',#1506,1.);
#830=VECTOR('',#1507,1.);
#831=VECTOR('',#1508,1.);
#832=VECTOR('',#1509,1.);
#833=VECTOR('',#1510,1.);
#834=VECTOR('',#1511,1.);
#835=VECTOR('',#1512,1.);
#836=VECTOR('',#1513,1.);
#837=VECTOR('',#1514,1.);
#838=VECTOR('',#1515,1.);
#839=VECTOR('',#1516,1.);
#840=VECTOR('',#1517,1.);
#841=VECTOR('',#1520,1.);
#842=VECTOR('',#1521,1.);
#843=VECTOR('',#1522,1.);
#844=VECTOR('',#1523,1.);
#845=VECTOR('',#1524,1.);
#846=VECTOR('',#1525,1.);
#847=VECTOR('',#1526,1.);
#848=VECTOR('',#1527,1.);
#849=VECTOR('',#1528,1.);
#850=VECTOR('',#1529,1.);
#851=VECTOR('',#1530,1.);
#852=VECTOR('',#1531,1.);
#853=VECTOR('',#1532,1.);
#854=VECTOR('',#1533,1.);
#855=VECTOR('',#1534,1.);
#856=VECTOR('',#1535,1.);
#857=VECTOR('',#1536,1.);
#858=VECTOR('',#1537,1.);
#859=VECTOR('',#1538,1.);
#860=VECTOR('',#1539,1.);
#861=VECTOR('',#1540,1.);
#862=VECTOR('',#1541,1.);
#863=VECTOR('',#1542,1.);
#864=VECTOR('',#1543,1.);
#865=VECTOR('',#1544,1.);
#866=VECTOR('',#1545,1.);
#867=VECTOR('',#1546,1.);
#868=VECTOR('',#1547,1.);
#869=VECTOR('',#1548,1.);
#870=VECTOR('',#1551,1.);
#871=VECTOR('',#1552,1.);
#872=VECTOR('',#1553,1.);
#873=VECTOR('',#1556,1.);
#874=VECTOR('',#1557,1.);
#875=VECTOR('',#1558,1.);
#876=VECTOR('',#1561,1.);
#877=VECTOR('',#1562,1.);
#878=VECTOR('',#1563,1.);
#879=VECTOR('',#1566,1.);
#880=VECTOR('',#1567,1.);
#881=VECTOR('',#1568,1.);
#882=VECTOR('',#1571,1.);
#883=VECTOR('',#1572,1.);
#884=VECTOR('',#1573,1.);
#885=VECTOR('',#1576,1.);
#886=VECTOR('',#1577,1.);
#887=VECTOR('',#1578,1.);
#888=VECTOR('',#1581,1.);
#889=VECTOR('',#1582,1.);
#890=VECTOR('',#1583,1.);
#891=VECTOR('',#1586,1.);
#892=VECTOR('',#1587,1.);
#893=VECTOR('',#1588,1.);
#894=VECTOR('',#1591,1.);
#895=VECTOR('',#1592,1.);
#896=VECTOR('',#1593,1.);
#897=VECTOR('',#1596,1.);
#898=VECTOR('',#1597,1.);
#899=VECTOR('',#1598,1.);
#900=VECTOR('',#1601,1.);
#901=VECTOR('',#1604,1.);
#902=VECTOR('',#1605,1.);
#903=VECTOR('',#1608,1.);
#904=VECTOR('',#1611,1.);
#905=VECTOR('',#1614,1.);
#906=VECTOR('',#1617,1.);
#907=VECTOR('',#1620,1.);
#908=VECTOR('',#1623,1.);
#909=VECTOR('',#1624,1.);
#910=VECTOR('',#1627,1.);
#911=VECTOR('',#1630,1.);
#912=VECTOR('',#1633,1.);
#913=VECTOR('',#1636,1.);
#914=VECTOR('',#1637,1.);
#915=VECTOR('',#1638,1.);
#916=VECTOR('',#1641,1.);
#917=VECTOR('',#1642,1.);
#918=VECTOR('',#1643,1.);
#919=VECTOR('',#1646,1.);
#920=VECTOR('',#1647,1.);
#921=VECTOR('',#1648,1.);
#922=VECTOR('',#1649,1.);
#923=VECTOR('',#1650,1.);
#924=VECTOR('',#1651,1.);
#925=VECTOR('',#1654,1.);
#926=VECTOR('',#1655,1.);
#927=VECTOR('',#1658,1.);
#928=VECTOR('',#1659,1.);
#929=VECTOR('',#1660,1.);
#930=VECTOR('',#1663,1.);
#931=VECTOR('',#1664,1.);
#932=VECTOR('',#1665,1.);
#933=VECTOR('',#1668,1.);
#934=VECTOR('',#1669,1.);
#935=VECTOR('',#1670,1.);
#936=VECTOR('',#1673,1.);
#937=VECTOR('',#1674,1.);
#938=VECTOR('',#1675,1.);
#939=VECTOR('',#1678,1.);
#940=VECTOR('',#1679,1.);
#941=VECTOR('',#1680,1.);
#942=VECTOR('',#1683,1.);
#943=VECTOR('',#1686,1.);
#944=VECTOR('',#1687,1.);
#945=VECTOR('',#1688,1.);
#946=VECTOR('',#1691,1.);
#947=VECTOR('',#1692,1.);
#948=VECTOR('',#1693,1.);
#949=VECTOR('',#1696,1.);
#950=VECTOR('',#1699,1.);
#951=VECTOR('',#1702,1.);
#952=VECTOR('',#1705,1.);
#953=VECTOR('',#1706,1.);
#954=VECTOR('',#1709,1.);
#955=VECTOR('',#1710,1.);
#956=VECTOR('',#1713,1.);
#957=VECTOR('',#1716,1.);
#958=VECTOR('',#1719,1.);
#959=VECTOR('',#1722,1.);
#960=VECTOR('',#1725,1.);
#961=VECTOR('',#1728,1.);
#962=VECTOR('',#1731,1.);
#963=VECTOR('',#1732,1.);
#964=VECTOR('',#1733,1.);
#965=VECTOR('',#1736,1.);
#966=VECTOR('',#1739,1.);
#967=VECTOR('',#1740,1.);
#968=VECTOR('',#1741,1.);
#969=VECTOR('',#1756,1.);
#970=VECTOR('',#1757,1.);
#971=VECTOR('',#1758,1.);
#972=VECTOR('',#1761,1.);
#973=VECTOR('',#1762,1.);
#974=VECTOR('',#1765,1.);
#975=EDGE_LOOP('',(#40,#41,#42,#43));
#976=EDGE_LOOP('',(#44,#45,#46,#47));
#977=EDGE_LOOP('',(#48,#49,#50,#51));
#978=EDGE_LOOP('',(#52,#53,#54,#55,#56,#57,#58,#59));
#979=EDGE_LOOP('',(#60,#61,#62,#63));
#980=EDGE_LOOP('',(#64,#65,#66,#67));
#981=EDGE_LOOP('',(#68,#69,#70,#71));
#982=EDGE_LOOP('',(#72,#73,#74,#75));
#983=EDGE_LOOP('',(#76,#77,#78,#79,#80,#81,#82,#83,#84,#85,#86,#87,#88,
#89,#90,#91,#92,#93,#94,#95,#96,#97,#98,#99,#100,#101,#102,#103,#104,#105,
#106,#107));
#984=EDGE_LOOP('',(#108,#109,#110,#111,#112,#113));
#985=EDGE_LOOP('',(#114,#115,#116,#117,#118,#119));
#986=EDGE_LOOP('',(#120,#121,#122,#123));
#987=EDGE_LOOP('',(#124,#125,#126,#127));
#988=EDGE_LOOP('',(#128,#129,#130,#131));
#989=EDGE_LOOP('',(#132,#133,#134,#135));
#990=EDGE_LOOP('',(#136,#137,#138,#139));
#991=EDGE_LOOP('',(#140,#141,#142,#143));
#992=EDGE_LOOP('',(#144,#145,#146,#147));
#993=EDGE_LOOP('',(#148,#149,#150,#151));
#994=EDGE_LOOP('',(#152,#153,#154,#155));
#995=EDGE_LOOP('',(#156,#157,#158,#159));
#996=EDGE_LOOP('',(#160,#161,#162,#163));
#997=EDGE_LOOP('',(#164,#165,#166,#167));
#998=EDGE_LOOP('',(#168,#169,#170,#171));
#999=EDGE_LOOP('',(#172,#173,#174,#175));
#1000=EDGE_LOOP('',(#176,#177,#178,#179));
#1001=EDGE_LOOP('',(#180,#181,#182,#183));
#1002=EDGE_LOOP('',(#184,#185,#186,#187));
#1003=EDGE_LOOP('',(#188,#189,#190,#191));
#1004=EDGE_LOOP('',(#192,#193,#194,#195));
#1005=EDGE_LOOP('',(#196,#197,#198,#199));
#1006=EDGE_LOOP('',(#200,#201,#202,#203));
#1007=EDGE_LOOP('',(#204,#205,#206,#207,#208,#209,#210,#211));
#1008=EDGE_LOOP('',(#212,#213,#214,#215));
#1009=EDGE_LOOP('',(#216,#217,#218,#219));
#1010=EDGE_LOOP('',(#220,#221,#222,#223));
#1011=EDGE_LOOP('',(#224,#225,#226,#227));
#1012=EDGE_LOOP('',(#228,#229,#230,#231));
#1013=EDGE_LOOP('',(#232,#233,#234,#235));
#1014=EDGE_LOOP('',(#236,#237,#238,#239));
#1015=EDGE_LOOP('',(#240,#241,#242,#243));
#1016=EDGE_LOOP('',(#244,#245,#246,#247));
#1017=EDGE_LOOP('',(#248,#249,#250,#251));
#1018=EDGE_LOOP('',(#252,#253,#254,#255));
#1019=EDGE_LOOP('',(#256,#257,#258,#259));
#1020=EDGE_LOOP('',(#260,#261,#262,#263));
#1021=EDGE_LOOP('',(#264,#265,#266,#267));
#1022=EDGE_LOOP('',(#268,#269,#270,#271));
#1023=EDGE_LOOP('',(#272,#273,#274,#275));
#1024=EDGE_LOOP('',(#276,#277,#278,#279));
#1025=EDGE_LOOP('',(#280,#281,#282,#283));
#1026=EDGE_LOOP('',(#284,#285,#286,#287));
#1027=EDGE_LOOP('',(#288,#289,#290,#291));
#1028=EDGE_LOOP('',(#292,#293,#294,#295,#296,#297,#298,#299));
#1029=EDGE_LOOP('',(#300,#301,#302,#303));
#1030=EDGE_LOOP('',(#304,#305,#306,#307,#308,#309,#310,#311,#312,#313,#314,
#315,#316,#317,#318,#319,#320,#321,#322,#323,#324,#325,#326,#327));
#1031=EDGE_LOOP('',(#328,#329,#330));
#1032=EDGE_LOOP('',(#331,#332,#333,#334));
#1033=EDGE_LOOP('',(#335,#336,#337,#338));
#1034=EDGE_LOOP('',(#339,#340,#341,#342));
#1035=EDGE_LOOP('',(#343,#344,#345,#346));
#1036=EDGE_LOOP('',(#347,#348,#349,#350));
#1037=EDGE_LOOP('',(#351,#352,#353,#354));
#1038=EDGE_LOOP('',(#355,#356,#357,#358));
#1039=EDGE_LOOP('',(#359,#360,#361,#362));
#1040=EDGE_LOOP('',(#363,#364,#365,#366));
#1041=EDGE_LOOP('',(#367,#368,#369));
#1042=FACE_BOUND('',#975,.T.);
#1043=FACE_BOUND('',#976,.T.);
#1044=FACE_BOUND('',#977,.T.);
#1045=FACE_BOUND('',#978,.T.);
#1046=FACE_BOUND('',#979,.T.);
#1047=FACE_BOUND('',#980,.T.);
#1048=FACE_BOUND('',#981,.T.);
#1049=FACE_BOUND('',#982,.T.);
#1050=FACE_BOUND('',#983,.T.);
#1051=FACE_BOUND('',#984,.T.);
#1052=FACE_BOUND('',#985,.T.);
#1053=FACE_BOUND('',#986,.T.);
#1054=FACE_BOUND('',#987,.T.);
#1055=FACE_BOUND('',#988,.T.);
#1056=FACE_BOUND('',#989,.T.);
#1057=FACE_BOUND('',#990,.T.);
#1058=FACE_BOUND('',#991,.T.);
#1059=FACE_BOUND('',#992,.T.);
#1060=FACE_BOUND('',#993,.T.);
#1061=FACE_BOUND('',#994,.T.);
#1062=FACE_BOUND('',#995,.T.);
#1063=FACE_BOUND('',#996,.T.);
#1064=FACE_BOUND('',#997,.T.);
#1065=FACE_BOUND('',#998,.T.);
#1066=FACE_BOUND('',#999,.T.);
#1067=FACE_BOUND('',#1000,.T.);
#1068=FACE_BOUND('',#1001,.T.);
#1069=FACE_BOUND('',#1002,.T.);
#1070=FACE_BOUND('',#1003,.T.);
#1071=FACE_BOUND('',#1004,.T.);
#1072=FACE_BOUND('',#1005,.T.);
#1073=FACE_BOUND('',#1006,.T.);
#1074=FACE_BOUND('',#1007,.T.);
#1075=FACE_BOUND('',#1008,.T.);
#1076=FACE_BOUND('',#1009,.T.);
#1077=FACE_BOUND('',#1010,.T.);
#1078=FACE_BOUND('',#1011,.T.);
#1079=FACE_BOUND('',#1012,.T.);
#1080=FACE_BOUND('',#1013,.T.);
#1081=FACE_BOUND('',#1014,.T.);
#1082=FACE_BOUND('',#1015,.T.);
#1083=FACE_BOUND('',#1016,.T.);
#1084=FACE_BOUND('',#1017,.T.);
#1085=FACE_BOUND('',#1018,.T.);
#1086=FACE_BOUND('',#1019,.T.);
#1087=FACE_BOUND('',#1020,.T.);
#1088=FACE_BOUND('',#1021,.T.);
#1089=FACE_BOUND('',#1022,.T.);
#1090=FACE_BOUND('',#1023,.T.);
#1091=FACE_BOUND('',#1024,.T.);
#1092=FACE_BOUND('',#1025,.T.);
#1093=FACE_BOUND('',#1026,.T.);
#1094=FACE_BOUND('',#1027,.T.);
#1095=FACE_BOUND('',#1028,.T.);
#1096=FACE_BOUND('',#1029,.T.);
#1097=FACE_BOUND('',#1030,.T.);
#1098=FACE_BOUND('',#1031,.T.);
#1099=FACE_BOUND('',#1032,.T.);
#1100=FACE_BOUND('',#1033,.T.);
#1101=FACE_BOUND('',#1034,.T.);
#1102=FACE_BOUND('',#1035,.T.);
#1103=FACE_BOUND('',#1036,.T.);
#1104=FACE_BOUND('',#1037,.T.);
#1105=FACE_BOUND('',#1038,.T.);
#1106=FACE_BOUND('',#1039,.T.);
#1107=FACE_BOUND('',#1040,.T.);
#1108=FACE_BOUND('',#1041,.T.);
#1109=PLANE('',#1415);
#1110=PLANE('',#1416);
#1111=PLANE('',#1417);
#1112=PLANE('',#1418);
#1113=PLANE('',#1419);
#1114=PLANE('',#1420);
#1115=PLANE('',#1421);
#1116=PLANE('',#1422);
#1117=PLANE('',#1423);
#1118=PLANE('',#1424);
#1119=PLANE('',#1425);
#1120=PLANE('',#1426);
#1121=PLANE('',#1427);
#1122=PLANE('',#1428);
#1123=PLANE('',#1429);
#1124=PLANE('',#1430);
#1125=PLANE('',#1431);
#1126=PLANE('',#1432);
#1127=PLANE('',#1433);
#1128=PLANE('',#1434);
#1129=PLANE('',#1435);
#1130=PLANE('',#1436);
#1131=PLANE('',#1437);
#1132=PLANE('',#1438);
#1133=PLANE('',#1439);
#1134=PLANE('',#1440);
#1135=PLANE('',#1441);
#1136=PLANE('',#1442);
#1137=PLANE('',#1443);
#1138=PLANE('',#1444);
#1139=PLANE('',#1445);
#1140=PLANE('',#1446);
#1141=PLANE('',#1447);
#1142=PLANE('',#1448);
#1143=PLANE('',#1449);
#1144=PLANE('',#1450);
#1145=PLANE('',#1451);
#1146=PLANE('',#1452);
#1147=PLANE('',#1453);
#1148=PLANE('',#1454);
#1149=PLANE('',#1455);
#1150=PLANE('',#1456);
#1151=PLANE('',#1457);
#1152=PLANE('',#1458);
#1153=PLANE('',#1459);
#1154=PLANE('',#1460);
#1155=PLANE('',#1461);
#1156=PLANE('',#1462);
#1157=PLANE('',#1463);
#1158=PLANE('',#1464);
#1159=PLANE('',#1465);
#1160=PLANE('',#1466);
#1161=PLANE('',#1467);
#1162=PLANE('',#1468);
#1163=PLANE('',#1469);
#1164=PLANE('',#1470);
#1165=PLANE('',#1471);
#1166=PLANE('',#1472);
#1167=PLANE('',#1473);
#1168=PLANE('',#1474);
#1169=PLANE('',#1475);
#1170=PLANE('',#1476);
#1171=ADVANCED_FACE('NONE',(#1042),#1109,.F.);
#1172=ADVANCED_FACE('NONE',(#1043),#1110,.T.);
#1173=ADVANCED_FACE('NONE',(#1044),#1111,.F.);
#1174=ADVANCED_FACE('NONE',(#1045,#1046,#1047,#1048,#1049),#1112,.T.);
#1175=ADVANCED_FACE('NONE',(#1050),#1113,.T.);
#1176=ADVANCED_FACE('NONE',(#1051),#1114,.F.);
#1177=ADVANCED_FACE('NONE',(#1052),#1115,.T.);
#1178=ADVANCED_FACE('NONE',(#1053),#1116,.F.);
#1179=ADVANCED_FACE('NONE',(#1054),#1117,.F.);
#1180=ADVANCED_FACE('NONE',(#1055),#1118,.F.);
#1181=ADVANCED_FACE('NONE',(#1056),#1119,.T.);
#1182=ADVANCED_FACE('NONE',(#1057),#1120,.F.);
#1183=ADVANCED_FACE('NONE',(#1058),#1121,.F.);
#1184=ADVANCED_FACE('NONE',(#1059),#1122,.T.);
#1185=ADVANCED_FACE('NONE',(#1060),#1123,.F.);
#1186=ADVANCED_FACE('NONE',(#1061),#1124,.F.);
#1187=ADVANCED_FACE('NONE',(#1062),#1125,.F.);
#1188=ADVANCED_FACE('NONE',(#1063),#1126,.T.);
#1189=ADVANCED_FACE('NONE',(#1064),#1127,.T.);
#1190=ADVANCED_FACE('NONE',(#1065),#1128,.T.);
#1191=ADVANCED_FACE('NONE',(#1066),#1129,.T.);
#1192=ADVANCED_FACE('NONE',(#1067),#1130,.T.);
#1193=ADVANCED_FACE('NONE',(#1068),#1131,.F.);
#1194=ADVANCED_FACE('NONE',(#1069),#1132,.F.);
#1195=ADVANCED_FACE('NONE',(#1070),#1133,.T.);
#1196=ADVANCED_FACE('NONE',(#1071),#1134,.T.);
#1197=ADVANCED_FACE('NONE',(#1072),#1135,.F.);
#1198=ADVANCED_FACE('NONE',(#1073),#1136,.T.);
#1199=ADVANCED_FACE('NONE',(#1074),#1137,.T.);
#1200=ADVANCED_FACE('NONE',(#1075),#1138,.F.);
#1201=ADVANCED_FACE('NONE',(#1076),#1139,.T.);
#1202=ADVANCED_FACE('NONE',(#1077),#1140,.F.);
#1203=ADVANCED_FACE('NONE',(#1078),#1141,.T.);
#1204=ADVANCED_FACE('NONE',(#1079),#1142,.F.);
#1205=ADVANCED_FACE('NONE',(#1080),#1143,.T.);
#1206=ADVANCED_FACE('NONE',(#1081),#1144,.T.);
#1207=ADVANCED_FACE('NONE',(#1082),#1145,.T.);
#1208=ADVANCED_FACE('NONE',(#1083),#1146,.F.);
#1209=ADVANCED_FACE('NONE',(#1084),#1147,.F.);
#1210=ADVANCED_FACE('NONE',(#1085),#1148,.T.);
#1211=ADVANCED_FACE('NONE',(#1086),#1149,.F.);
#1212=ADVANCED_FACE('NONE',(#1087),#1150,.T.);
#1213=ADVANCED_FACE('NONE',(#1088),#1151,.F.);
#1214=ADVANCED_FACE('NONE',(#1089),#1152,.T.);
#1215=ADVANCED_FACE('NONE',(#1090),#1153,.F.);
#1216=ADVANCED_FACE('NONE',(#1091),#1154,.F.);
#1217=ADVANCED_FACE('NONE',(#1092),#1155,.F.);
#1218=ADVANCED_FACE('NONE',(#1093),#1156,.F.);
#1219=ADVANCED_FACE('NONE',(#1094),#1157,.T.);
#1220=ADVANCED_FACE('NONE',(#1095),#1158,.T.);
#1221=ADVANCED_FACE('NONE',(#1096),#1159,.F.);
#1222=ADVANCED_FACE('NONE',(#1097,#1098),#1160,.T.);
#1223=ADVANCED_FACE('NONE',(#1099),#1161,.F.);
#1224=ADVANCED_FACE('NONE',(#1100),#1162,.T.);
#1225=ADVANCED_FACE('NONE',(#1101),#1163,.F.);
#1226=ADVANCED_FACE('NONE',(#1102),#1164,.F.);
#1227=ADVANCED_FACE('NONE',(#1103),#1165,.F.);
#1228=ADVANCED_FACE('NONE',(#1104),#1166,.F.);
#1229=ADVANCED_FACE('NONE',(#1105),#1167,.F.);
#1230=ADVANCED_FACE('NONE',(#1106),#1168,.F.);
#1231=ADVANCED_FACE('NONE',(#1107),#1169,.F.);
#1232=ADVANCED_FACE('NONE',(#1108),#1170,.F.);
#1233=CLOSED_SHELL('',(#1171,#1172,#1173,#1174,#1175,#1176,#1177,#1178,
#1179,#1180,#1181,#1182,#1183,#1184,#1185,#1186,#1187,#1188,#1189,#1190,
#1191,#1192,#1193,#1194,#1195,#1196,#1197,#1198,#1199,#1200,#1201,#1202,
#1203,#1204,#1205,#1206,#1207,#1208,#1209,#1210,#1211,#1212,#1213,#1214,
#1215,#1216,#1217,#1218,#1219,#1220,#1221,#1222,#1223,#1224,#1225,#1226,
#1227,#1228,#1229,#1230,#1231,#1232));
#1234=STYLED_ITEM('',(#1235),#1411);
#1235=PRESENTATION_STYLE_ASSIGNMENT((#1264));
#1236=PRESENTATION_STYLE_ASSIGNMENT((#1265));
#1237=PRESENTATION_STYLE_ASSIGNMENT((#1266));
#1238=PRESENTATION_STYLE_ASSIGNMENT((#1267));
#1239=PRESENTATION_STYLE_ASSIGNMENT((#1268));
#1240=PRESENTATION_STYLE_ASSIGNMENT((#1269));
#1241=PRESENTATION_STYLE_ASSIGNMENT((#1270));
#1242=PRESENTATION_STYLE_ASSIGNMENT((#1271));
#1243=PRESENTATION_STYLE_ASSIGNMENT((#1272));
#1244=PRESENTATION_STYLE_ASSIGNMENT((#1273));
#1245=PRESENTATION_STYLE_ASSIGNMENT((#1274));
#1246=PRESENTATION_STYLE_ASSIGNMENT((#1275));
#1247=PRESENTATION_STYLE_ASSIGNMENT((#1276));
#1248=PRESENTATION_STYLE_ASSIGNMENT((#1277));
#1249=PRESENTATION_STYLE_ASSIGNMENT((#1278));
#1250=PRESENTATION_STYLE_ASSIGNMENT((#1279));
#1251=PRESENTATION_STYLE_ASSIGNMENT((#1280));
#1252=PRESENTATION_STYLE_ASSIGNMENT((#1281));
#1253=PRESENTATION_STYLE_ASSIGNMENT((#1282));
#1254=PRESENTATION_STYLE_ASSIGNMENT((#1283));
#1255=PRESENTATION_STYLE_ASSIGNMENT((#1284));
#1256=PRESENTATION_STYLE_ASSIGNMENT((#1285));
#1257=PRESENTATION_STYLE_ASSIGNMENT((#1286));
#1258=PRESENTATION_STYLE_ASSIGNMENT((#1287));
#1259=PRESENTATION_STYLE_ASSIGNMENT((#1288));
#1260=PRESENTATION_STYLE_ASSIGNMENT((#1289));
#1261=PRESENTATION_STYLE_ASSIGNMENT((#1290));
#1262=PRESENTATION_STYLE_ASSIGNMENT((#1291));
#1263=PRESENTATION_STYLE_ASSIGNMENT((#1292));
#1264=SURFACE_STYLE_USAGE(.BOTH.,#1293);
#1265=SURFACE_STYLE_USAGE(.BOTH.,#1294);
#1266=SURFACE_STYLE_USAGE(.BOTH.,#1295);
#1267=SURFACE_STYLE_USAGE(.BOTH.,#1296);
#1268=SURFACE_STYLE_USAGE(.BOTH.,#1297);
#1269=SURFACE_STYLE_USAGE(.BOTH.,#1298);
#1270=SURFACE_STYLE_USAGE(.BOTH.,#1299);
#1271=SURFACE_STYLE_USAGE(.BOTH.,#1300);
#1272=SURFACE_STYLE_USAGE(.BOTH.,#1301);
#1273=SURFACE_STYLE_USAGE(.BOTH.,#1302);
#1274=SURFACE_STYLE_USAGE(.BOTH.,#1303);
#1275=SURFACE_STYLE_USAGE(.BOTH.,#1304);
#1276=SURFACE_STYLE_USAGE(.BOTH.,#1305);
#1277=SURFACE_STYLE_USAGE(.BOTH.,#1306);
#1278=SURFACE_STYLE_USAGE(.BOTH.,#1307);
#1279=SURFACE_STYLE_USAGE(.BOTH.,#1308);
#1280=SURFACE_STYLE_USAGE(.BOTH.,#1309);
#1281=SURFACE_STYLE_USAGE(.BOTH.,#1310);
#1282=SURFACE_STYLE_USAGE(.BOTH.,#1311);
#1283=SURFACE_STYLE_USAGE(.BOTH.,#1312);
#1284=SURFACE_STYLE_USAGE(.BOTH.,#1313);
#1285=SURFACE_STYLE_USAGE(.BOTH.,#1314);
#1286=SURFACE_STYLE_USAGE(.BOTH.,#1315);
#1287=SURFACE_STYLE_USAGE(.BOTH.,#1316);
#1288=SURFACE_STYLE_USAGE(.BOTH.,#1317);
#1289=SURFACE_STYLE_USAGE(.BOTH.,#1318);
#1290=SURFACE_STYLE_USAGE(.BOTH.,#1319);
#1291=SURFACE_STYLE_USAGE(.BOTH.,#1320);
#1292=SURFACE_STYLE_USAGE(.BOTH.,#1321);
#1293=SURFACE_SIDE_STYLE('',(#1322));
#1294=SURFACE_SIDE_STYLE('',(#1323));
#1295=SURFACE_SIDE_STYLE('',(#1324));
#1296=SURFACE_SIDE_STYLE('',(#1325));
#1297=SURFACE_SIDE_STYLE('',(#1326));
#1298=SURFACE_SIDE_STYLE('',(#1327));
#1299=SURFACE_SIDE_STYLE('',(#1328));
#1300=SURFACE_SIDE_STYLE('',(#1329));
#1301=SURFACE_SIDE_STYLE('',(#1330));
#1302=SURFACE_SIDE_STYLE('',(#1331));
#1303=SURFACE_SIDE_STYLE('',(#1332));
#1304=SURFACE_SIDE_STYLE('',(#1333));
#1305=SURFACE_SIDE_STYLE('',(#1334));
#1306=SURFACE_SIDE_STYLE('',(#1335));
#1307=SURFACE_SIDE_STYLE('',(#1336));
#1308=SURFACE_SIDE_STYLE('',(#1337));
#1309=SURFACE_SIDE_STYLE('',(#1338));
#1310=SURFACE_SIDE_STYLE('',(#1339));
#1311=SURFACE_SIDE_STYLE('',(#1340));
#1312=SURFACE_SIDE_STYLE('',(#1341));
#1313=SURFACE_SIDE_STYLE('',(#1342));
#1314=SURFACE_SIDE_STYLE('',(#1343));
#1315=SURFACE_SIDE_STYLE('',(#1344));
#1316=SURFACE_SIDE_STYLE('',(#1345));
#1317=SURFACE_SIDE_STYLE('',(#1346));
#1318=SURFACE_SIDE_STYLE('',(#1347));
#1319=SURFACE_SIDE_STYLE('',(#1348));
#1320=SURFACE_SIDE_STYLE('',(#1349));
#1321=SURFACE_SIDE_STYLE('',(#1350));
#1322=SURFACE_STYLE_FILL_AREA(#1351);
#1323=SURFACE_STYLE_FILL_AREA(#1352);
#1324=SURFACE_STYLE_FILL_AREA(#1353);
#1325=SURFACE_STYLE_FILL_AREA(#1354);
#1326=SURFACE_STYLE_FILL_AREA(#1355);
#1327=SURFACE_STYLE_FILL_AREA(#1356);
#1328=SURFACE_STYLE_FILL_AREA(#1357);
#1329=SURFACE_STYLE_FILL_AREA(#1358);
#1330=SURFACE_STYLE_FILL_AREA(#1359);
#1331=SURFACE_STYLE_FILL_AREA(#1360);
#1332=SURFACE_STYLE_FILL_AREA(#1361);
#1333=SURFACE_STYLE_FILL_AREA(#1362);
#1334=SURFACE_STYLE_FILL_AREA(#1363);
#1335=SURFACE_STYLE_FILL_AREA(#1364);
#1336=SURFACE_STYLE_FILL_AREA(#1365);
#1337=SURFACE_STYLE_FILL_AREA(#1366);
#1338=SURFACE_STYLE_FILL_AREA(#1367);
#1339=SURFACE_STYLE_FILL_AREA(#1368);
#1340=SURFACE_STYLE_FILL_AREA(#1369);
#1341=SURFACE_STYLE_FILL_AREA(#1370);
#1342=SURFACE_STYLE_FILL_AREA(#1371);
#1343=SURFACE_STYLE_FILL_AREA(#1372);
#1344=SURFACE_STYLE_FILL_AREA(#1373);
#1345=SURFACE_STYLE_FILL_AREA(#1374);
#1346=SURFACE_STYLE_FILL_AREA(#1375);
#1347=SURFACE_STYLE_FILL_AREA(#1376);
#1348=SURFACE_STYLE_FILL_AREA(#1377);
#1349=SURFACE_STYLE_FILL_AREA(#1378);
#1350=SURFACE_STYLE_FILL_AREA(#1379);
#1351=FILL_AREA_STYLE('',(#1380));
#1352=FILL_AREA_STYLE('',(#1381));
#1353=FILL_AREA_STYLE('',(#1382));
#1354=FILL_AREA_STYLE('',(#1383));
#1355=FILL_AREA_STYLE('',(#1384));
#1356=FILL_AREA_STYLE('',(#1385));
#1357=FILL_AREA_STYLE('',(#1386));
#1358=FILL_AREA_STYLE('',(#1387));
#1359=FILL_AREA_STYLE('',(#1388));
#1360=FILL_AREA_STYLE('',(#1389));
#1361=FILL_AREA_STYLE('',(#1390));
#1362=FILL_AREA_STYLE('',(#1391));
#1363=FILL_AREA_STYLE('',(#1392));
#1364=FILL_AREA_STYLE('',(#1393));
#1365=FILL_AREA_STYLE('',(#1394));
#1366=FILL_AREA_STYLE('',(#1395));
#1367=FILL_AREA_STYLE('',(#1396));
#1368=FILL_AREA_STYLE('',(#1397));
#1369=FILL_AREA_STYLE('',(#1398));
#1370=FILL_AREA_STYLE('',(#1399));
#1371=FILL_AREA_STYLE('',(#1400));
#1372=FILL_AREA_STYLE('',(#1401));
#1373=FILL_AREA_STYLE('',(#1402));
#1374=FILL_AREA_STYLE('',(#1403));
#1375=FILL_AREA_STYLE('',(#1404));
#1376=FILL_AREA_STYLE('',(#1405));
#1377=FILL_AREA_STYLE('',(#1406));
#1378=FILL_AREA_STYLE('',(#1407));
#1379=FILL_AREA_STYLE('',(#1408));
#1380=FILL_AREA_STYLE_COLOUR('',#1409);
#1381=FILL_AREA_STYLE_COLOUR('',#1410);
#1382=FILL_AREA_STYLE_COLOUR('',#1410);
#1383=FILL_AREA_STYLE_COLOUR('',#1410);
#1384=FILL_AREA_STYLE_COLOUR('',#1410);
#1385=FILL_AREA_STYLE_COLOUR('',#1410);
#1386=FILL_AREA_STYLE_COLOUR('',#1410);
#1387=FILL_AREA_STYLE_COLOUR('',#1410);
#1388=FILL_AREA_STYLE_COLOUR('',#1410);
#1389=FILL_AREA_STYLE_COLOUR('',#1410);
#1390=FILL_AREA_STYLE_COLOUR('',#1410);
#1391=FILL_AREA_STYLE_COLOUR('',#1410);
#1392=FILL_AREA_STYLE_COLOUR('',#1410);
#1393=FILL_AREA_STYLE_COLOUR('',#1410);
#1394=FILL_AREA_STYLE_COLOUR('',#1410);
#1395=FILL_AREA_STYLE_COLOUR('',#1410);
#1396=FILL_AREA_STYLE_COLOUR('',#1410);
#1397=FILL_AREA_STYLE_COLOUR('',#1410);
#1398=FILL_AREA_STYLE_COLOUR('',#1410);
#1399=FILL_AREA_STYLE_COLOUR('',#1410);
#1400=FILL_AREA_STYLE_COLOUR('',#1410);
#1401=FILL_AREA_STYLE_COLOUR('',#1410);
#1402=FILL_AREA_STYLE_COLOUR('',#1410);
#1403=FILL_AREA_STYLE_COLOUR('',#1410);
#1404=FILL_AREA_STYLE_COLOUR('',#1410);
#1405=FILL_AREA_STYLE_COLOUR('',#1410);
#1406=FILL_AREA_STYLE_COLOUR('',#1410);
#1407=FILL_AREA_STYLE_COLOUR('',#1410);
#1408=FILL_AREA_STYLE_COLOUR('',#1410);
#1409=COLOUR_RGB('',0.917647058823529,0.917647058823529,0.917647058823529);
#1410=COLOUR_RGB('',0.749019607843137,0.749019607843137,0.749019607843137);
#1411=MANIFOLD_SOLID_BREP('NONE',#1233);
#1412=SHAPE_DEFINITION_REPRESENTATION(#2112,#1413);
#1413=SHAPE_REPRESENTATION('NONE',(#1414),#2107);
#1414=AXIS2_PLACEMENT_3D('',#1768,#1477,#1478);
#1415=AXIS2_PLACEMENT_3D('',#1769,#1479,#1480);
#1416=AXIS2_PLACEMENT_3D('',#1778,#1485,#1486);
#1417=AXIS2_PLACEMENT_3D('',#1784,#1490,#1491);
#1418=AXIS2_PLACEMENT_3D('',#1790,#1495,#1496);
#1419=AXIS2_PLACEMENT_3D('',#1832,#1518,#1519);
#1420=AXIS2_PLACEMENT_3D('',#1890,#1549,#1550);
#1421=AXIS2_PLACEMENT_3D('',#1896,#1554,#1555);
#1422=AXIS2_PLACEMENT_3D('',#1902,#1559,#1560);
#1423=AXIS2_PLACEMENT_3D('',#1908,#1564,#1565);
#1424=AXIS2_PLACEMENT_3D('',#1914,#1569,#1570);
#1425=AXIS2_PLACEMENT_3D('',#1920,#1574,#1575);
#1426=AXIS2_PLACEMENT_3D('',#1926,#1579,#1580);
#1427=AXIS2_PLACEMENT_3D('',#1932,#1584,#1585);
#1428=AXIS2_PLACEMENT_3D('',#1938,#1589,#1590);
#1429=AXIS2_PLACEMENT_3D('',#1944,#1594,#1595);
#1430=AXIS2_PLACEMENT_3D('',#1950,#1599,#1600);
#1431=AXIS2_PLACEMENT_3D('',#1952,#1602,#1603);
#1432=AXIS2_PLACEMENT_3D('',#1956,#1606,#1607);
#1433=AXIS2_PLACEMENT_3D('',#1958,#1609,#1610);
#1434=AXIS2_PLACEMENT_3D('',#1960,#1612,#1613);
#1435=AXIS2_PLACEMENT_3D('',#1962,#1615,#1616);
#1436=AXIS2_PLACEMENT_3D('',#1964,#1618,#1619);
#1437=AXIS2_PLACEMENT_3D('',#1966,#1621,#1622);
#1438=AXIS2_PLACEMENT_3D('',#1970,#1625,#1626);
#1439=AXIS2_PLACEMENT_3D('',#1972,#1628,#1629);
#1440=AXIS2_PLACEMENT_3D('',#1974,#1631,#1632);
#1441=AXIS2_PLACEMENT_3D('',#1976,#1634,#1635);
#1442=AXIS2_PLACEMENT_3D('',#1982,#1639,#1640);
#1443=AXIS2_PLACEMENT_3D('',#1988,#1644,#1645);
#1444=AXIS2_PLACEMENT_3D('',#1999,#1652,#1653);
#1445=AXIS2_PLACEMENT_3D('',#2003,#1656,#1657);
#1446=AXIS2_PLACEMENT_3D('',#2009,#1661,#1662);
#1447=AXIS2_PLACEMENT_3D('',#2015,#1666,#1667);
#1448=AXIS2_PLACEMENT_3D('',#2021,#1671,#1672);
#1449=AXIS2_PLACEMENT_3D('',#2027,#1676,#1677);
#1450=AXIS2_PLACEMENT_3D('',#2033,#1681,#1682);
#1451=AXIS2_PLACEMENT_3D('',#2035,#1684,#1685);
#1452=AXIS2_PLACEMENT_3D('',#2041,#1689,#1690);
#1453=AXIS2_PLACEMENT_3D('',#2047,#1694,#1695);
#1454=AXIS2_PLACEMENT_3D('',#2049,#1697,#1698);
#1455=AXIS2_PLACEMENT_3D('',#2051,#1700,#1701);
#1456=AXIS2_PLACEMENT_3D('',#2053,#1703,#1704);
#1457=AXIS2_PLACEMENT_3D('',#2057,#1707,#1708);
#1458=AXIS2_PLACEMENT_3D('',#2061,#1711,#1712);
#1459=AXIS2_PLACEMENT_3D('',#2063,#1714,#1715);
#1460=AXIS2_PLACEMENT_3D('',#2065,#1717,#1718);
#1461=AXIS2_PLACEMENT_3D('',#2067,#1720,#1721);
#1462=AXIS2_PLACEMENT_3D('',#2069,#1723,#1724);
#1463=AXIS2_PLACEMENT_3D('',#2071,#1726,#1727);
#1464=AXIS2_PLACEMENT_3D('',#2073,#1729,#1730);
#1465=AXIS2_PLACEMENT_3D('',#2078,#1734,#1735);
#1466=AXIS2_PLACEMENT_3D('',#2080,#1737,#1738);
#1467=AXIS2_PLACEMENT_3D('',#2087,#1742,#1743);
#1468=AXIS2_PLACEMENT_3D('',#2088,#1744,#1745);
#1469=AXIS2_PLACEMENT_3D('',#2089,#1746,#1747);
#1470=AXIS2_PLACEMENT_3D('',#2090,#1748,#1749);
#1471=AXIS2_PLACEMENT_3D('',#2091,#1750,#1751);
#1472=AXIS2_PLACEMENT_3D('',#2092,#1752,#1753);
#1473=AXIS2_PLACEMENT_3D('',#2093,#1754,#1755);
#1474=AXIS2_PLACEMENT_3D('',#2099,#1759,#1760);
#1475=AXIS2_PLACEMENT_3D('',#2103,#1763,#1764);
#1476=AXIS2_PLACEMENT_3D('',#2105,#1766,#1767);
#1477=DIRECTION('',(0.,0.,1.));
#1478=DIRECTION('',(1.,0.,0.));
#1479=DIRECTION('',(0.,0.,-1.));
#1480=DIRECTION('',(-1.,0.,0.));
#1481=DIRECTION('',(1.,0.,0.));
#1482=DIRECTION('',(0.,1.,0.));
#1483=DIRECTION('',(1.,0.,0.));
#1484=DIRECTION('',(0.,1.,0.));
#1485=DIRECTION('',(0.707106781186548,0.,0.707106781186548));
#1486=DIRECTION('',(0.707106781186548,0.,-0.707106781186548));
#1487=DIRECTION('',(0.707106781186548,0.,-0.707106781186548));
#1488=DIRECTION('',(0.,1.,0.));
#1489=DIRECTION('',(-0.707106781124676,0.,0.707106781248419));
#1490=DIRECTION('',(0.707106781186548,0.,-0.707106781186548));
#1491=DIRECTION('',(-0.707106781186548,0.,-0.707106781186548));
#1492=DIRECTION('',(-0.707106781045126,0.,-0.707106781327969));
#1493=DIRECTION('',(0.,1.,0.));
#1494=DIRECTION('',(0.707106781310291,0.,0.707106781062804));
#1495=DIRECTION('',(0.,-1.,0.));
#1496=DIRECTION('',(0.,0.,-1.));
#1497=DIRECTION('',(1.,0.,0.));
#1498=DIRECTION('',(0.,0.,-1.));
#1499=DIRECTION('',(1.,0.,0.));
#1500=DIRECTION('',(0.,0.,-1.));
#1501=DIRECTION('',(1.,0.,0.));
#1502=DIRECTION('',(1.,0.,0.));
#1503=DIRECTION('',(0.,0.,-1.));
#1504=DIRECTION('',(1.,0.,0.));
#1505=DIRECTION('',(0.,0.,-1.));
#1506=DIRECTION('',(1.,0.,0.));
#1507=DIRECTION('',(0.,0.,-1.));
#1508=DIRECTION('',(1.,0.,0.));
#1509=DIRECTION('',(0.,0.,-1.));
#1510=DIRECTION('',(0.,0.,-1.));
#1511=DIRECTION('',(1.,0.,0.));
#1512=DIRECTION('',(0.,0.,-1.));
#1513=DIRECTION('',(1.,0.,0.));
#1514=DIRECTION('',(0.,0.,-1.));
#1515=DIRECTION('',(1.,0.,0.));
#1516=DIRECTION('',(0.,0.,-1.));
#1517=DIRECTION('',(1.,0.,0.));
#1518=DIRECTION('',(0.,1.,0.));
#1519=DIRECTION('',(0.,0.,1.));
#1520=DIRECTION('',(0.,0.,1.));
#1521=DIRECTION('',(1.,0.,0.));
#1522=DIRECTION('',(0.,0.,1.));
#1523=DIRECTION('',(1.,0.,0.));
#1524=DIRECTION('',(0.,0.,1.));
#1525=DIRECTION('',(1.,0.,0.));
#1526=DIRECTION('',(0.,0.,1.));
#1527=DIRECTION('',(1.,0.,0.));
#1528=DIRECTION('',(0.,0.,1.));
#1529=DIRECTION('',(1.,0.,0.));
#1530=DIRECTION('',(0.,0.,1.));
#1531=DIRECTION('',(1.,0.,0.));
#1532=DIRECTION('',(0.,0.,1.));
#1533=DIRECTION('',(1.,0.,0.));
#1534=DIRECTION('',(0.,0.,1.));
#1535=DIRECTION('',(1.,0.,0.));
#1536=DIRECTION('',(0.,0.,1.));
#1537=DIRECTION('',(1.,0.,0.));
#1538=DIRECTION('',(0.,0.,1.));
#1539=DIRECTION('',(1.,0.,0.));
#1540=DIRECTION('',(0.,0.,1.));
#1541=DIRECTION('',(1.,0.,0.));
#1542=DIRECTION('',(1.,0.,0.));
#1543=DIRECTION('',(0.,0.,1.));
#1544=DIRECTION('',(1.,0.,0.));
#1545=DIRECTION('',(0.,0.,1.));
#1546=DIRECTION('',(1.,0.,0.));
#1547=DIRECTION('',(0.,0.,1.));
#1548=DIRECTION('',(1.,0.,0.));
#1549=DIRECTION('',(0.,0.,-1.));
#1550=DIRECTION('',(-1.,0.,0.));
#1551=DIRECTION('',(1.,0.,0.));
#1552=DIRECTION('',(0.,1.,0.));
#1553=DIRECTION('',(0.,1.,0.));
#1554=DIRECTION('',(0.,0.,1.));
#1555=DIRECTION('',(1.,0.,0.));
#1556=DIRECTION('',(0.,1.,0.));
#1557=DIRECTION('',(1.,0.,0.));
#1558=DIRECTION('',(0.,1.,0.));
#1559=DIRECTION('',(0.,0.,1.));
#1560=DIRECTION('',(1.,0.,0.));
#1561=DIRECTION('',(1.,0.,0.));
#1562=DIRECTION('',(0.,1.,0.));
#1563=DIRECTION('',(0.,1.,0.));
#1564=DIRECTION('',(-1.,0.,0.));
#1565=DIRECTION('',(0.,0.,1.));
#1566=DIRECTION('',(0.,1.,0.));
#1567=DIRECTION('',(0.,0.,-1.));
#1568=DIRECTION('',(0.,1.,0.));
#1569=DIRECTION('',(0.,0.,1.));
#1570=DIRECTION('',(1.,0.,0.));
#1571=DIRECTION('',(0.,1.,0.));
#1572=DIRECTION('',(1.,0.,0.));
#1573=DIRECTION('',(0.,1.,0.));
#1574=DIRECTION('',(-1.,0.,0.));
#1575=DIRECTION('',(0.,0.,1.));
#1576=DIRECTION('',(0.,1.,0.));
#1577=DIRECTION('',(0.,0.,1.));
#1578=DIRECTION('',(0.,1.,0.));
#1579=DIRECTION('',(0.,0.,-1.));
#1580=DIRECTION('',(-1.,0.,0.));
#1581=DIRECTION('',(1.,0.,0.));
#1582=DIRECTION('',(0.,1.,0.));
#1583=DIRECTION('',(0.,1.,0.));
#1584=DIRECTION('',(0.,0.,1.));
#1585=DIRECTION('',(1.,0.,0.));
#1586=DIRECTION('',(0.,1.,0.));
#1587=DIRECTION('',(1.,0.,0.));
#1588=DIRECTION('',(0.,1.,0.));
#1589=DIRECTION('',(0.,0.,-1.));
#1590=DIRECTION('',(-1.,0.,0.));
#1591=DIRECTION('',(0.,1.,0.));
#1592=DIRECTION('',(0.,1.,0.));
#1593=DIRECTION('',(-1.,0.,0.));
#1594=DIRECTION('',(0.,0.,-1.));
#1595=DIRECTION('',(-1.,0.,0.));
#1596=DIRECTION('',(0.,1.,0.));
#1597=DIRECTION('',(1.,0.,0.));
#1598=DIRECTION('',(0.,1.,0.));
#1599=DIRECTION('',(1.,0.,0.));
#1600=DIRECTION('',(0.,0.,-1.));
#1601=DIRECTION('',(0.,0.,1.));
#1602=DIRECTION('',(1.,0.,0.));
#1603=DIRECTION('',(0.,0.,-1.));
#1604=DIRECTION('',(0.,0.,1.));
#1605=DIRECTION('',(0.,1.,0.));
#1606=DIRECTION('',(-1.,0.,0.));
#1607=DIRECTION('',(0.,0.,1.));
#1608=DIRECTION('',(0.,0.,1.));
#1609=DIRECTION('',(1.,0.,0.));
#1610=DIRECTION('',(0.,0.,-1.));
#1611=DIRECTION('',(0.,0.,-1.));
#1612=DIRECTION('',(1.,0.,0.));
#1613=DIRECTION('',(0.,0.,-1.));
#1614=DIRECTION('',(0.,0.,-1.));
#1615=DIRECTION('',(0.,0.,1.));
#1616=DIRECTION('',(1.,0.,0.));
#1617=DIRECTION('',(1.,0.,0.));
#1618=DIRECTION('',(0.,0.,-1.));
#1619=DIRECTION('',(-1.,0.,0.));
#1620=DIRECTION('',(-1.,0.,0.));
#1621=DIRECTION('',(0.,0.,-1.));
#1622=DIRECTION('',(-1.,0.,0.));
#1623=DIRECTION('',(1.,0.,0.));
#1624=DIRECTION('',(0.,1.,0.));
#1625=DIRECTION('',(1.,0.,0.));
#1626=DIRECTION('',(0.,0.,-1.));
#1627=DIRECTION('',(0.,0.,1.));
#1628=DIRECTION('',(1.,0.,0.));
#1629=DIRECTION('',(0.,0.,-1.));
#1630=DIRECTION('',(0.,0.,-1.));
#1631=DIRECTION('',(1.,0.,0.));
#1632=DIRECTION('',(0.,0.,-1.));
#1633=DIRECTION('',(0.,0.,-1.));
#1634=DIRECTION('',(0.,0.,1.));
#1635=DIRECTION('',(1.,0.,0.));
#1636=DIRECTION('',(0.,1.,0.));
#1637=DIRECTION('',(1.,0.,0.));
#1638=DIRECTION('',(0.,1.,0.));
#1639=DIRECTION('',(-1.,0.,0.));
#1640=DIRECTION('',(0.,0.,1.));
#1641=DIRECTION('',(0.,1.,0.));
#1642=DIRECTION('',(0.,1.,0.));
#1643=DIRECTION('',(0.,0.,1.));
#1644=DIRECTION('',(0.,0.,1.));
#1645=DIRECTION('',(1.,0.,0.));
#1646=DIRECTION('',(0.,1.,0.));
#1647=DIRECTION('',(1.,0.,0.));
#1648=DIRECTION('',(0.,1.,0.));
#1649=DIRECTION('',(0.,1.,0.));
#1650=DIRECTION('',(1.,0.,0.));
#1651=DIRECTION('',(0.,1.,0.));
#1652=DIRECTION('',(1.,0.,0.));
#1653=DIRECTION('',(0.,0.,-1.));
#1654=DIRECTION('',(0.,1.,0.));
#1655=DIRECTION('',(0.,0.,1.));
#1656=DIRECTION('',(0.,0.,-1.));
#1657=DIRECTION('',(-1.,0.,0.));
#1658=DIRECTION('',(1.,0.,0.));
#1659=DIRECTION('',(0.,1.,0.));
#1660=DIRECTION('',(0.,1.,0.));
#1661=DIRECTION('',(0.,0.,1.));
#1662=DIRECTION('',(1.,0.,0.));
#1663=DIRECTION('',(0.,1.,0.));
#1664=DIRECTION('',(1.,0.,0.));
#1665=DIRECTION('',(0.,1.,0.));
#1666=DIRECTION('',(0.,0.,1.));
#1667=DIRECTION('',(1.,0.,0.));
#1668=DIRECTION('',(0.,1.,0.));
#1669=DIRECTION('',(1.,0.,0.));
#1670=DIRECTION('',(0.,1.,0.));
#1671=DIRECTION('',(0.,0.,-1.));
#1672=DIRECTION('',(-1.,0.,0.));
#1673=DIRECTION('',(0.,1.,0.));
#1674=DIRECTION('',(1.,0.,0.));
#1675=DIRECTION('',(0.,1.,0.));
#1676=DIRECTION('',(1.,0.,0.));
#1677=DIRECTION('',(0.,0.,-1.));
#1678=DIRECTION('',(0.,0.,-1.));
#1679=DIRECTION('',(0.,1.,0.));
#1680=DIRECTION('',(0.,1.,0.));
#1681=DIRECTION('',(-1.,0.,0.));
#1682=DIRECTION('',(0.,0.,1.));
#1683=DIRECTION('',(0.,0.,1.));
#1684=DIRECTION('',(0.,0.,1.));
#1685=DIRECTION('',(1.,0.,0.));
#1686=DIRECTION('',(0.,1.,0.));
#1687=DIRECTION('',(1.,0.,0.));
#1688=DIRECTION('',(0.,1.,0.));
#1689=DIRECTION('',(1.,0.,0.));
#1690=DIRECTION('',(0.,0.,-1.));
#1691=DIRECTION('',(0.,1.,0.));
#1692=DIRECTION('',(0.,0.,-1.));
#1693=DIRECTION('',(0.,1.,0.));
#1694=DIRECTION('',(0.,0.,-1.));
#1695=DIRECTION('',(-1.,0.,0.));
#1696=DIRECTION('',(1.,0.,0.));
#1697=DIRECTION('',(1.,0.,0.));
#1698=DIRECTION('',(0.,0.,-1.));
#1699=DIRECTION('',(0.,0.,-1.));
#1700=DIRECTION('',(-1.,0.,0.));
#1701=DIRECTION('',(0.,0.,1.));
#1702=DIRECTION('',(0.,0.,1.));
#1703=DIRECTION('',(-1.,0.,0.));
#1704=DIRECTION('',(0.,0.,1.));
#1705=DIRECTION('',(0.,1.,0.));
#1706=DIRECTION('',(0.,0.,1.));
#1707=DIRECTION('',(-1.,0.,0.));
#1708=DIRECTION('',(0.,0.,1.));
#1709=DIRECTION('',(0.,0.,1.));
#1710=DIRECTION('',(0.,1.,0.));
#1711=DIRECTION('',(0.,0.,-1.));
#1712=DIRECTION('',(-1.,0.,0.));
#1713=DIRECTION('',(1.,0.,0.));
#1714=DIRECTION('',(-1.,0.,0.));
#1715=DIRECTION('',(0.,0.,1.));
#1716=DIRECTION('',(0.,0.,1.));
#1717=DIRECTION('',(1.,0.,0.));
#1718=DIRECTION('',(0.,0.,-1.));
#1719=DIRECTION('',(0.,0.,-1.));
#1720=DIRECTION('',(1.,0.,0.));
#1721=DIRECTION('',(0.,0.,-1.));
#1722=DIRECTION('',(0.,0.,1.));
#1723=DIRECTION('',(0.,0.,-1.));
#1724=DIRECTION('',(-1.,0.,0.));
#1725=DIRECTION('',(1.,0.,0.));
#1726=DIRECTION('',(1.,0.,0.));
#1727=DIRECTION('',(0.,0.,-1.));
#1728=DIRECTION('',(0.,0.,1.));
#1729=DIRECTION('',(0.,0.,1.));
#1730=DIRECTION('',(1.,0.,0.));
#1731=DIRECTION('',(1.,0.,0.));
#1732=DIRECTION('',(0.,1.,0.));
#1733=DIRECTION('',(1.,0.,0.));
#1734=DIRECTION('',(-1.,0.,0.));
#1735=DIRECTION('',(0.,0.,1.));
#1736=DIRECTION('',(0.,0.,1.));
#1737=DIRECTION('',(0.,1.,0.));
#1738=DIRECTION('',(0.,0.,1.));
#1739=DIRECTION('',(0.50000000080824,0.,-0.866025403317801));
#1740=DIRECTION('',(0.500000000703614,0.,0.866025403378207));
#1741=DIRECTION('',(1.,0.,0.));
#1742=DIRECTION('',(0.,1.,0.));
#1743=DIRECTION('',(0.,0.,1.));
#1744=DIRECTION('',(0.,-1.,0.));
#1745=DIRECTION('',(0.,0.,-1.));
#1746=DIRECTION('',(0.,1.,0.));
#1747=DIRECTION('',(0.,0.,1.));
#1748=DIRECTION('',(0.,1.,0.));
#1749=DIRECTION('',(0.,0.,1.));
#1750=DIRECTION('',(0.,-1.,0.));
#1751=DIRECTION('',(0.,0.,-1.));
#1752=DIRECTION('',(0.,-1.,0.));
#1753=DIRECTION('',(0.,0.,-1.));
#1754=DIRECTION('',(0.,0.,1.));
#1755=DIRECTION('',(1.,0.,0.));
#1756=DIRECTION('',(0.,1.,0.));
#1757=DIRECTION('',(1.,0.,0.));
#1758=DIRECTION('',(0.,1.,0.));
#1759=DIRECTION('',(0.866025403480548,0.,-0.500000000526354));
#1760=DIRECTION('',(-0.500000000526354,0.,-0.866025403480548));
#1761=DIRECTION('',(0.,1.,0.));
#1762=DIRECTION('',(-0.500000000688016,0.,-0.866025403387213));
#1763=DIRECTION('',(-0.866025403480548,0.,-0.500000000526354));
#1764=DIRECTION('',(-0.500000000526354,0.,0.866025403480548));
#1765=DIRECTION('',(-0.500000000566949,0.,0.86602540345711));
#1766=DIRECTION('',(0.,-1.,0.));
#1767=DIRECTION('',(0.,0.,-1.));
#1768=CARTESIAN_POINT('',(0.,0.,0.));
#1769=CARTESIAN_POINT('',(0.0005,0.,0.00165));
#1770=CARTESIAN_POINT('',(-0.0021,0.,0.0016499999997));
#1771=CARTESIAN_POINT('',(0.00049999999995,0.,0.0016499999998375));
#1772=CARTESIAN_POINT('',(-0.000499999999770312,0.,0.00164999999974219));
#1773=CARTESIAN_POINT('',(0.0005000000000125,0.,0.0016500000000125));
#1774=CARTESIAN_POINT('',(0.000499999999965625,0.0002,0.00165000000009687));
#1775=CARTESIAN_POINT('',(-0.0016,0.0002,0.0016500000001375));
#1776=CARTESIAN_POINT('',(-0.000499999999965625,0.0002,0.00164999999996562));
#1777=CARTESIAN_POINT('',(-0.00049999999979375,0.,0.00164999999979375));
#1778=CARTESIAN_POINT('',(-0.001,0.,0.00215));
#1779=CARTESIAN_POINT('',(-0.001,0.0002,0.00215));
#1780=CARTESIAN_POINT('',(-0.001,0.0002,0.00215));
#1781=CARTESIAN_POINT('',(-0.001,0.,0.00215));
#1782=CARTESIAN_POINT('',(-0.000999999999975,0.,0.00215));
#1783=CARTESIAN_POINT('',(-0.0004999999998125,0.,0.001649999999775));
#1784=CARTESIAN_POINT('',(0.001,0.,0.00215));
#1785=CARTESIAN_POINT('',(0.00099999999995,0.,0.00215));
#1786=CARTESIAN_POINT('',(0.000999999999975,0.,0.00215));
#1787=CARTESIAN_POINT('',(0.001,0.,0.00215));
#1788=CARTESIAN_POINT('',(0.001,0.00020000000000625,0.00215));
#1789=CARTESIAN_POINT('',(0.000499999999925,0.0002,0.0016500000001));
#1790=CARTESIAN_POINT('',(-0.0021,0.,0.00215));
#1791=CARTESIAN_POINT('',(-0.0021,0.,0.00215));
#1792=CARTESIAN_POINT('',(-0.0021,0.,0.00215));
#1793=CARTESIAN_POINT('',(-0.0021,0.,0.00215));
#1794=CARTESIAN_POINT('',(-0.0021,0.,-0.00215));
#1795=CARTESIAN_POINT('',(-0.0021,0.,-0.00215));
#1796=CARTESIAN_POINT('',(0.0021,0.,-0.00215));
#1797=CARTESIAN_POINT('',(0.0021,0.,0.00215));
#1798=CARTESIAN_POINT('',(0.0021,0.,0.00215));
#1799=CARTESIAN_POINT('',(-0.0021,0.,0.00215));
#1800=CARTESIAN_POINT('',(-0.0021,0.,-0.00174999999985));
#1801=CARTESIAN_POINT('',(0.000499999999971875,0.,-0.0017499999999));
#1802=CARTESIAN_POINT('',(0.00070000000013125,0.,-0.0017499999998625));
#1803=CARTESIAN_POINT('',(0.0007000000002625,0.,0.00215));
#1804=CARTESIAN_POINT('',(0.00070000000013125,0.,-0.00209999999999531));
#1805=CARTESIAN_POINT('',(-0.0021,0.,-0.00209999999999375));
#1806=CARTESIAN_POINT('',(0.000499999999975,0.,-0.00209999999999531));
#1807=CARTESIAN_POINT('',(0.0004999999999625,0.,0.00215));
#1808=CARTESIAN_POINT('',(-0.0021,0.,-0.00174999999985));
#1809=CARTESIAN_POINT('',(-0.00070000000013125,0.,-0.001749999999875));
#1810=CARTESIAN_POINT('',(-0.000499999999971875,0.,-0.001749999999875));
#1811=CARTESIAN_POINT('',(-0.0004999999999625,0.,0.00215));
#1812=CARTESIAN_POINT('',(-0.00049999999998125,0.,-0.00209999999999531));
#1813=CARTESIAN_POINT('',(-0.0021,0.,-0.00209999999999375));
#1814=CARTESIAN_POINT('',(-0.000700000000175,0.,-0.00209999999999531));
#1815=CARTESIAN_POINT('',(-0.0007000000002625,0.,0.00215));
#1816=CARTESIAN_POINT('',(-0.0016000000000125,0.,0.00215));
#1817=CARTESIAN_POINT('',(-0.00160000000000938,0.,0.00185000000095));
#1818=CARTESIAN_POINT('',(-0.00160000000001563,0.,0.0015499999997));
#1819=CARTESIAN_POINT('',(-0.0021,0.,0.0015499999994));
#1820=CARTESIAN_POINT('',(-0.00180000000008437,0.,0.0015499999997));
#1821=CARTESIAN_POINT('',(-0.0018000000001125,0.,0.00215));
#1822=CARTESIAN_POINT('',(-0.00180000000016875,0.,0.001850000000925));
#1823=CARTESIAN_POINT('',(-0.0021,0.,0.0018500000009));
#1824=CARTESIAN_POINT('',(0.0018000000003375,0.,0.00215));
#1825=CARTESIAN_POINT('',(0.00180000000016875,0.,0.00185000000069375));
#1826=CARTESIAN_POINT('',(0.00180000000016875,0.,0.00154999999994375));
#1827=CARTESIAN_POINT('',(-0.0021,0.,0.001549999999925));
#1828=CARTESIAN_POINT('',(0.0016000000000125,0.,0.001549999999925));
#1829=CARTESIAN_POINT('',(0.001600000000025,0.,0.00215));
#1830=CARTESIAN_POINT('',(0.00160000000001875,0.,0.0018500000008));
#1831=CARTESIAN_POINT('',(-0.0021,0.,0.0018500000007));
#1832=CARTESIAN_POINT('',(-0.0016,0.0002,-0.00165));
#1833=CARTESIAN_POINT('',(0.001600000000025,0.0002,-0.00165));
#1834=CARTESIAN_POINT('',(0.00160000000001875,0.0002,-0.00095000000026875));
#1835=CARTESIAN_POINT('',(0.00160000000001875,0.0002,-0.00134999999983125));
#1836=CARTESIAN_POINT('',(-0.0016,0.0002,-0.0013499999996625));
#1837=CARTESIAN_POINT('',(0.00070000000005,0.0002,-0.00134999999983125));
#1838=CARTESIAN_POINT('',(0.00070000000005,0.0002,-0.00165));
#1839=CARTESIAN_POINT('',(0.000700000000025,0.0002,-0.00029999999998125));
#1840=CARTESIAN_POINT('',(-0.0016,0.0002,-0.000299999999975));
#1841=CARTESIAN_POINT('',(0.0005,0.0002,-0.0002999999999875));
#1842=CARTESIAN_POINT('',(0.0005,0.0002,-0.00165));
#1843=CARTESIAN_POINT('',(0.000500000000003125,0.0002,-0.00134999999949375));
#1844=CARTESIAN_POINT('',(-0.0016,0.0002,-0.0013499999989875));
#1845=CARTESIAN_POINT('',(0.000299999999775,0.0002,-0.00134999999949375));
#1846=CARTESIAN_POINT('',(0.000299999999775,0.0002,-0.00165));
#1847=CARTESIAN_POINT('',(0.0002999999998875,0.0002,-0.00165));
#1848=CARTESIAN_POINT('',(-0.0016,0.0002,-0.00165));
#1849=CARTESIAN_POINT('',(-0.000299999999775,0.0002,-0.00165));
#1850=CARTESIAN_POINT('',(-0.000299999999775,0.0002,-0.00165));
#1851=CARTESIAN_POINT('',(-0.00029999999983125,0.0002,-0.0013499999995875));
#1852=CARTESIAN_POINT('',(-0.0016,0.0002,-0.001349999999175));
#1853=CARTESIAN_POINT('',(-0.000500000000034375,0.0002,-0.0013499999995875));
#1854=CARTESIAN_POINT('',(-0.0005000000000375,0.0002,-0.00165));
#1855=CARTESIAN_POINT('',(-0.00050000000001875,0.0002,-0.00029999999998125));
#1856=CARTESIAN_POINT('',(-0.0016,0.0002,-0.000299999999975));
#1857=CARTESIAN_POINT('',(-0.0007,0.0002,-0.0002999999999875));
#1858=CARTESIAN_POINT('',(-0.0007,0.0002,-0.00165));
#1859=CARTESIAN_POINT('',(-0.00070000000000625,0.0002,-0.00134999999949375));
#1860=CARTESIAN_POINT('',(-0.0016,0.0002,-0.0013499999989875));
#1861=CARTESIAN_POINT('',(-0.001600000000025,0.0002,-0.00134999999949375));
#1862=CARTESIAN_POINT('',(-0.001600000000025,0.0002,-0.00165));
#1863=CARTESIAN_POINT('',(-0.00160000000001875,0.0002,-0.000950000000271875));
#1864=CARTESIAN_POINT('',(-0.0016,0.0002,-0.000950000000225));
#1865=CARTESIAN_POINT('',(-0.00130000000003125,0.0002,-0.0009500000001125));
#1866=CARTESIAN_POINT('',(-0.0013,0.0002,-0.00165));
#1867=CARTESIAN_POINT('',(-0.0013,0.0002,-0.0003500000001125));
#1868=CARTESIAN_POINT('',(-0.0016,0.0002,-0.000350000000225));
#1869=CARTESIAN_POINT('',(-0.00160000000001875,0.0002,-0.00035000000016875));
#1870=CARTESIAN_POINT('',(-0.001600000000025,0.0002,-0.00165));
#1871=CARTESIAN_POINT('',(-0.00160000000001875,0.0002,0.00124999999991875));
#1872=CARTESIAN_POINT('',(-0.0016,0.0002,0.0012499999998375));
#1873=CARTESIAN_POINT('',(-0.00130000000025469,0.0002,0.00124999999991875));
#1874=CARTESIAN_POINT('',(-0.00130000000025,0.0002,-0.00165));
#1875=CARTESIAN_POINT('',(-0.001300000000125,0.0002,0.00215));
#1876=CARTESIAN_POINT('',(-0.0016,0.0002,0.00215));
#1877=CARTESIAN_POINT('',(0.001,0.0002000000000125,0.00215));
#1878=CARTESIAN_POINT('',(0.00130000000038125,0.000200000000009375,0.00215));
#1879=CARTESIAN_POINT('',(0.0013000000003,0.0002,-0.00165));
#1880=CARTESIAN_POINT('',(0.00130000000015,0.0002,0.00124999999979375));
#1881=CARTESIAN_POINT('',(-0.0016,0.0002,0.0012499999998375));
#1882=CARTESIAN_POINT('',(0.00160000000000313,0.0002,0.00124999999991875));
#1883=CARTESIAN_POINT('',(0.0016,0.0002,-0.00165));
#1884=CARTESIAN_POINT('',(0.0016,0.0002,-0.000350000000296875));
#1885=CARTESIAN_POINT('',(-0.0016,0.0002,-0.0003500000004125));
#1886=CARTESIAN_POINT('',(0.0013,0.0002,-0.0003500000003125));
#1887=CARTESIAN_POINT('',(0.0013,0.0002,-0.00165));
#1888=CARTESIAN_POINT('',(0.0013,0.0002,-0.00095000000015625));
#1889=CARTESIAN_POINT('',(-0.0016,0.0002,-0.0009500000003125));
#1890=CARTESIAN_POINT('',(-0.001,0.,0.00215));
#1891=CARTESIAN_POINT('',(-0.0021,0.0014,0.00215));
#1892=CARTESIAN_POINT('',(-0.0021,0.0014,0.00215));
#1893=CARTESIAN_POINT('',(-0.00130000000021562,0.0014,0.00215));
#1894=CARTESIAN_POINT('',(-0.0021,0.,0.00215));
#1895=CARTESIAN_POINT('',(-0.0013,0.0002,0.00215));
#1896=CARTESIAN_POINT('',(0.001,0.,0.00215));
#1897=CARTESIAN_POINT('',(0.0021,0.,0.00215));
#1898=CARTESIAN_POINT('',(0.0021,0.0014,0.00215));
#1899=CARTESIAN_POINT('',(-0.0021,0.0014,0.00215));
#1900=CARTESIAN_POINT('',(0.00130000000023125,0.0014,0.00215));
#1901=CARTESIAN_POINT('',(0.0013000000004625,0.,0.00215));
#1902=CARTESIAN_POINT('',(0.0016,-5.0000001E-5,0.00155));
#1903=CARTESIAN_POINT('',(0.0016,-5.0000001E-5,0.00155));
#1904=CARTESIAN_POINT('',(0.0016,-5.0000001E-5,0.0015499999999625));
#1905=CARTESIAN_POINT('',(0.0018,-5.0000001E-5,0.00155));
#1906=CARTESIAN_POINT('',(0.0016,-5.0000001E-5,0.001549999999925));
#1907=CARTESIAN_POINT('',(0.0018,-5.0000001E-5,0.00155));
#1908=CARTESIAN_POINT('',(-0.0016,-5.0000001E-5,0.001549999999));
#1909=CARTESIAN_POINT('',(-0.0016,-5.0000001E-5,0.001850000001));
#1910=CARTESIAN_POINT('',(-0.00160000000000625,-5.0000001E-5,0.001850000001));
#1911=CARTESIAN_POINT('',(-0.0016000000000125,-5.0000001E-5,0.001850000001));
#1912=CARTESIAN_POINT('',(-0.00160000000001875,-5.0000001E-5,0.00155));
#1913=CARTESIAN_POINT('',(-0.001600000000025,-5.0000001E-5,0.00155));
#1914=CARTESIAN_POINT('',(0.0005,-5.E-5,-0.0021));
#1915=CARTESIAN_POINT('',(0.0007,-5.E-5,-0.0021));
#1916=CARTESIAN_POINT('',(0.0007,-5.E-5,-0.0021));
#1917=CARTESIAN_POINT('',(0.0005,-5.E-5,-0.0021));
#1918=CARTESIAN_POINT('',(0.00049999999999375,-5.E-5,-0.0021));
#1919=CARTESIAN_POINT('',(0.0004999999999875,-5.E-5,-0.0021));
#1920=CARTESIAN_POINT('',(-0.0018,-5.0000001E-5,0.001549999999));
#1921=CARTESIAN_POINT('',(-0.0018,-5.0000001E-5,0.00155));
#1922=CARTESIAN_POINT('',(-0.0018,-5.0000001E-5,0.00155));
#1923=CARTESIAN_POINT('',(-0.0018,-5.0000001E-5,0.001549999999));
#1924=CARTESIAN_POINT('',(-0.0018000000001125,-5.0000001E-5,0.001850000001));
#1925=CARTESIAN_POINT('',(-0.001800000000225,-5.0000001E-5,0.001850000001));
#1926=CARTESIAN_POINT('',(0.0018,-5.0000001E-5,0.001850000001));
#1927=CARTESIAN_POINT('',(0.0016,-5.0000001E-5,0.001850000000775));
#1928=CARTESIAN_POINT('',(0.0018,-5.0000001E-5,0.001850000000725));
#1929=CARTESIAN_POINT('',(0.0016,-5.0000001E-5,0.0018500000008375));
#1930=CARTESIAN_POINT('',(0.0018,-5.0000001E-5,0.001850000000675));
#1931=CARTESIAN_POINT('',(0.0016,-5.0000001E-5,0.0018500000009));
#1932=CARTESIAN_POINT('',(-0.0007,-5.E-5,-0.0021));
#1933=CARTESIAN_POINT('',(-0.0005,-5.E-5,-0.0021));
#1934=CARTESIAN_POINT('',(-0.0005,-5.E-5,-0.0021));
#1935=CARTESIAN_POINT('',(-0.0007,-5.E-5,-0.0021));
#1936=CARTESIAN_POINT('',(-0.00070000000004375,-5.E-5,-0.0021));
#1937=CARTESIAN_POINT('',(-0.0007000000000875,-5.E-5,-0.0021));
#1938=CARTESIAN_POINT('',(0.0021,0.,-0.00215));
#1939=CARTESIAN_POINT('',(0.0021,0.,-0.00215));
#1940=CARTESIAN_POINT('',(0.0021,0.0014,-0.00215));
#1941=CARTESIAN_POINT('',(-0.0021,0.,-0.00215));
#1942=CARTESIAN_POINT('',(-0.0021,0.0014,-0.00215));
#1943=CARTESIAN_POINT('',(0.0021,0.0014,-0.00215));
#1944=CARTESIAN_POINT('',(0.0007,-5.E-5,-0.00175));
#1945=CARTESIAN_POINT('',(0.0005,-5.E-5,-0.00174999999995));
#1946=CARTESIAN_POINT('',(0.0005,-5.E-5,-0.00174999999995));
#1947=CARTESIAN_POINT('',(0.0005,-5.E-5,-0.00174999999995));
#1948=CARTESIAN_POINT('',(0.0007,-5.E-5,-0.001749999999925));
#1949=CARTESIAN_POINT('',(0.0007,-5.E-5,-0.0017499999999));
#1950=CARTESIAN_POINT('',(0.0016,-5.0000001E-5,0.001850000001));
#1951=CARTESIAN_POINT('',(0.0016,-5.0000001E-5,0.00155));
#1952=CARTESIAN_POINT('',(-0.0007,-5.E-5,-0.00175));
#1953=CARTESIAN_POINT('',(-0.0007,-5.E-5,-0.0021));
#1954=CARTESIAN_POINT('',(-0.0007,-5.E-5,-0.00174999999995));
#1955=CARTESIAN_POINT('',(-0.0007,-5.E-5,-0.00174999999995));
#1956=CARTESIAN_POINT('',(-0.0021,0.,-0.00215));
#1957=CARTESIAN_POINT('',(-0.0021,0.0014,-0.00215));
#1958=CARTESIAN_POINT('',(0.0021,0.,0.00215));
#1959=CARTESIAN_POINT('',(0.0021,0.0014,0.00215));
#1960=CARTESIAN_POINT('',(0.0007,-5.E-5,-0.00175));
#1961=CARTESIAN_POINT('',(0.0007,-5.E-5,-0.00175));
#1962=CARTESIAN_POINT('',(-0.0018,-5.0000001E-5,0.001850000001));
#1963=CARTESIAN_POINT('',(-0.0018,-5.0000001E-5,0.001850000001));
#1964=CARTESIAN_POINT('',(-0.0016,-5.0000001E-5,0.00155));
#1965=CARTESIAN_POINT('',(-0.0016,-5.0000001E-5,0.00155));
#1966=CARTESIAN_POINT('',(-0.0005,-5.E-5,-0.00175));
#1967=CARTESIAN_POINT('',(-0.0007,-5.E-5,-0.00174999999995));
#1968=CARTESIAN_POINT('',(-0.0005,-5.E-5,-0.001749999999925));
#1969=CARTESIAN_POINT('',(-0.0005,-5.E-5,-0.0017499999999));
#1970=CARTESIAN_POINT('',(0.0005,-5.E-5,-0.00175));
#1971=CARTESIAN_POINT('',(0.0005,-5.E-5,-0.0021));
#1972=CARTESIAN_POINT('',(0.0018,-5.0000001E-5,0.00185));
#1973=CARTESIAN_POINT('',(0.0018,-5.0000001E-5,0.00185));
#1974=CARTESIAN_POINT('',(-0.0005,-5.E-5,-0.00175));
#1975=CARTESIAN_POINT('',(-0.0005,-5.E-5,-0.00175));
#1976=CARTESIAN_POINT('',(0.0013,0.0002,0.00125));
#1977=CARTESIAN_POINT('',(0.0013,0.0002,0.0012499999996625));
#1978=CARTESIAN_POINT('',(0.0013,0.0014,0.0012499999996625));
#1979=CARTESIAN_POINT('',(-0.0021,0.0014,0.0012499999996625));
#1980=CARTESIAN_POINT('',(0.00160000000003125,0.0014,0.00124999999983125));
#1981=CARTESIAN_POINT('',(0.0016000000000125,0.0002,0.00125));
#1982=CARTESIAN_POINT('',(0.0013,0.0002,-0.00095));
#1983=CARTESIAN_POINT('',(0.0013,0.0002,-0.00095));
#1984=CARTESIAN_POINT('',(0.00130000000009375,0.0014,-0.000950000000209375));
#1985=CARTESIAN_POINT('',(0.0013,0.0002,-0.0003500000002125));
#1986=CARTESIAN_POINT('',(0.0013000000000625,0.0014,-0.000350000000198438));
#1987=CARTESIAN_POINT('',(0.001300000000125,0.0014,-0.00215));
#1988=CARTESIAN_POINT('',(0.0003,0.0002,-0.00135));
#1989=CARTESIAN_POINT('',(0.0005000000000125,0.0002,-0.00135));
#1990=CARTESIAN_POINT('',(0.0005000000000125,0.0007799999999625,-0.00135));
#1991=CARTESIAN_POINT('',(0.0003,0.000779999999925,-0.00135));
#1992=CARTESIAN_POINT('',(0.000700000000025,0.000779999999925,-0.00135));
#1993=CARTESIAN_POINT('',(0.00070000000005,0.0002,-0.00135));
#1994=CARTESIAN_POINT('',(0.0016,0.0002,-0.00135));
#1995=CARTESIAN_POINT('',(0.00160000000000938,0.0014,-0.0013499999996625));
#1996=CARTESIAN_POINT('',(-0.0021,0.0014,-0.001349999999325));
#1997=CARTESIAN_POINT('',(0.000299999999859375,0.0014,-0.0013499999996625));
#1998=CARTESIAN_POINT('',(0.000299999999775,0.0002,-0.00135));
#1999=CARTESIAN_POINT('',(0.0016,0.0002,0.00125));
#2000=CARTESIAN_POINT('',(0.0016,0.0002,-0.00035000000018125));
#2001=CARTESIAN_POINT('',(0.00160000000001875,0.0014,-0.000350000000190625));
#2002=CARTESIAN_POINT('',(0.0016000000000375,0.0014,-0.00215));
#2003=CARTESIAN_POINT('',(-0.0013,0.0002,0.00125));
#2004=CARTESIAN_POINT('',(-0.0021,0.0014,0.0012499999996625));
#2005=CARTESIAN_POINT('',(-0.00130000000039062,0.0014,0.00124999999983125));
#2006=CARTESIAN_POINT('',(-0.00160000000000938,0.0014,0.00124999999983125));
#2007=CARTESIAN_POINT('',(-0.00130000000026875,0.0002,0.00125));
#2008=CARTESIAN_POINT('',(-0.0016,0.0002,0.00125));
#2009=CARTESIAN_POINT('',(-0.0016,0.0002,-0.00095));
#2010=CARTESIAN_POINT('',(-0.0016,0.0002,-0.00095000000031875));
#2011=CARTESIAN_POINT('',(-0.00160000000002813,0.0014,-0.000950000000525));
#2012=CARTESIAN_POINT('',(-0.0021,0.0014,-0.00095000000073125));
#2013=CARTESIAN_POINT('',(-0.001300000000125,0.0014,-0.000950000000365625));
#2014=CARTESIAN_POINT('',(-0.001300000000125,0.0002,-0.00095));
#2015=CARTESIAN_POINT('',(-0.0003,0.0002,-0.00165));
#2016=CARTESIAN_POINT('',(0.0003,0.0002,-0.00165));
#2017=CARTESIAN_POINT('',(0.000299999999915625,0.0014,-0.00164999999990625));
#2018=CARTESIAN_POINT('',(-0.0021,0.0014,-0.0016499999998125));
#2019=CARTESIAN_POINT('',(-0.000299999999859375,0.0014,-0.00164999999990625));
#2020=CARTESIAN_POINT('',(-0.000299999999775,0.0002,-0.00165));
#2021=CARTESIAN_POINT('',(0.0007,0.0002,-0.0003));
#2022=CARTESIAN_POINT('',(0.0007,0.0002,-0.0003));
#2023=CARTESIAN_POINT('',(0.0007,0.0007799999999625,-0.0003));
#2024=CARTESIAN_POINT('',(0.0005,0.00078,-0.0003));
#2025=CARTESIAN_POINT('',(0.00050000000000625,0.00078,-0.0003));
#2026=CARTESIAN_POINT('',(0.0005,0.0002,-0.0003));
#2027=CARTESIAN_POINT('',(-0.0005,0.0002,-0.0003));
#2028=CARTESIAN_POINT('',(-0.0005,0.000779999999925,-0.0003));
#2029=CARTESIAN_POINT('',(-0.0005000000000125,0.000779999999925,-0.00135));
#2030=CARTESIAN_POINT('',(-0.0005,0.0007799999999625,-0.0003));
#2031=CARTESIAN_POINT('',(-0.0005,0.0002,-0.0003));
#2032=CARTESIAN_POINT('',(-0.000500000000025,0.0002,-0.00135));
#2033=CARTESIAN_POINT('',(0.0013,0.0002,0.00125));
#2034=CARTESIAN_POINT('',(0.0013,0.0014,0.00125));
#2035=CARTESIAN_POINT('',(-0.0016,0.0002,-0.00035));
#2036=CARTESIAN_POINT('',(-0.0013,0.0002,-0.00035));
#2037=CARTESIAN_POINT('',(-0.0013000000000625,0.0014,-0.000350000000089062));
#2038=CARTESIAN_POINT('',(-0.0021,0.0014,-0.00035000000011875));
#2039=CARTESIAN_POINT('',(-0.00160000000000625,0.0014,-0.000350000000117188));
#2040=CARTESIAN_POINT('',(-0.0016,0.0002,-0.0003500000001125));
#2041=CARTESIAN_POINT('',(-0.0007,0.0002,-0.0003));
#2042=CARTESIAN_POINT('',(-0.0007,0.0002,-0.0003));
#2043=CARTESIAN_POINT('',(-0.0007000000000125,0.00078,-0.0003));
#2044=CARTESIAN_POINT('',(-0.000700000000025,0.00078,-0.0003));
#2045=CARTESIAN_POINT('',(-0.000700000000025,0.0007799999999625,-0.00135));
#2046=CARTESIAN_POINT('',(-0.000700000000025,0.0002,-0.00135));
#2047=CARTESIAN_POINT('',(-0.0005,0.0002,-0.0003));
#2048=CARTESIAN_POINT('',(-0.0007,0.00078,-0.0003));
#2049=CARTESIAN_POINT('',(0.0007,0.0002,-0.0003));
#2050=CARTESIAN_POINT('',(0.0007,0.000779999999925,-0.0003));
#2051=CARTESIAN_POINT('',(-0.0013,0.0002,-0.000950000001));
#2052=CARTESIAN_POINT('',(-0.001300000000125,0.0014,-0.00215));
#2053=CARTESIAN_POINT('',(0.0016,0.0002,-0.00135));
#2054=CARTESIAN_POINT('',(0.0016,0.0002,-0.000950000000225));
#2055=CARTESIAN_POINT('',(0.00160000000000938,0.0014,-0.000950000000321875));
#2056=CARTESIAN_POINT('',(0.0016000000000125,0.0014,-0.00215));
#2057=CARTESIAN_POINT('',(-0.0016,0.0002,-0.00135));
#2058=CARTESIAN_POINT('',(-0.0016000000000375,0.0014,-0.00215));
#2059=CARTESIAN_POINT('',(-0.00160000000003438,0.0014,-0.00134999999985));
#2060=CARTESIAN_POINT('',(-0.001600000000025,0.0002,-0.00135));
#2061=CARTESIAN_POINT('',(0.0016,0.0002,-0.00095));
#2062=CARTESIAN_POINT('',(-0.0021,0.0014,-0.00095000000041875));
#2063=CARTESIAN_POINT('',(-0.0013,0.0002,0.00125));
#2064=CARTESIAN_POINT('',(-0.00130000000043125,0.0014,-0.00215));
#2065=CARTESIAN_POINT('',(0.0005,0.0002,-0.0003));
#2066=CARTESIAN_POINT('',(0.0005000000000125,0.00078,-0.0003));
#2067=CARTESIAN_POINT('',(0.0003,0.0002,-0.001349999999));
#2068=CARTESIAN_POINT('',(0.0002999999998875,0.0014,-0.00215));
#2069=CARTESIAN_POINT('',(0.0016,0.0002,-0.00035));
#2070=CARTESIAN_POINT('',(-0.0021,0.0014,-0.00035000000019375));
#2071=CARTESIAN_POINT('',(-0.0016,0.0002,0.00125));
#2072=CARTESIAN_POINT('',(-0.0016000000000125,0.0014,-0.00215));
#2073=CARTESIAN_POINT('',(-0.0016,0.0002,-0.00135));
#2074=CARTESIAN_POINT('',(-0.0016,0.000779999999925,-0.00135));
#2075=CARTESIAN_POINT('',(-0.0003,0.0002,-0.00135));
#2076=CARTESIAN_POINT('',(-0.000299999999915625,0.0014,-0.00134999999985));
#2077=CARTESIAN_POINT('',(-0.0021,0.0014,-0.0013499999997));
#2078=CARTESIAN_POINT('',(-0.0003,0.0002,-0.00165));
#2079=CARTESIAN_POINT('',(-0.0002999999998875,0.0014,-0.00215));
#2080=CARTESIAN_POINT('',(-0.0021,0.0014,-0.00215));
#2081=CARTESIAN_POINT('',(-0.00133094010811108,0.0014,-0.001649999999875));
#2082=CARTESIAN_POINT('',(-0.00133094010809146,0.0014,-0.00164999999990296));
#2083=CARTESIAN_POINT('',(-0.00110000000007376,0.0014,-0.00204999999978414));
#2084=CARTESIAN_POINT('',(-0.00110000000004832,0.0014,-0.00204999999968302));
#2085=CARTESIAN_POINT('',(-0.00086905989202971,0.0014,-0.00164999999988913));
#2086=CARTESIAN_POINT('',(-0.0021,0.0014,-0.0016499999998029));
#2087=CARTESIAN_POINT('',(0.0016,-5.0000001E-5,0.00155));
#2088=CARTESIAN_POINT('',(-0.0018,-5.0000001E-5,0.001850000001));
#2089=CARTESIAN_POINT('',(0.0005,-5.E-5,-0.0021));
#2090=CARTESIAN_POINT('',(-0.0007,-5.E-5,-0.0021));
#2091=CARTESIAN_POINT('',(0.0005,0.00078,-0.0003));
#2092=CARTESIAN_POINT('',(-0.0007,0.00078,-0.0003));
#2093=CARTESIAN_POINT('',(-0.001330940108,0.00138,-0.00165));
#2094=CARTESIAN_POINT('',(-0.000869059892008374,0.00138,-0.00165));
#2095=CARTESIAN_POINT('',(-0.000869059892004187,0.00138,-0.00165));
#2096=CARTESIAN_POINT('',(-0.001333711389,0.00138,-0.00165));
#2097=CARTESIAN_POINT('',(-0.001330940108025,0.00138,-0.00165));
#2098=CARTESIAN_POINT('',(-0.001330940108025,0.00138,-0.00165));
#2099=CARTESIAN_POINT('',(-0.000869059892,0.00138,-0.00165));
#2100=CARTESIAN_POINT('',(-0.00110000000004978,0.00138,-0.00204999999991378));
#2101=CARTESIAN_POINT('',(-0.00110000000004978,0.00138,-0.00204999999991378));
#2102=CARTESIAN_POINT('',(-0.000869059891958373,0.00138,-0.0016499999999279));
#2103=CARTESIAN_POINT('',(-0.0011,0.00138,-0.00205));
#2104=CARTESIAN_POINT('',(-0.00110000000004978,0.00138,-0.00204999999991378));
#2105=CARTESIAN_POINT('',(-0.001333711389,0.00138,-0.00165));
#2106=MECHANICAL_DESIGN_GEOMETRIC_PRESENTATION_REPRESENTATION('',(#1234,
#12,#13,#14,#15,#16,#17,#18,#19,#20,#21,#22,#23,#24,#25,#26,#27,#28,#29,
#30,#31,#32,#33,#34,#35,#36,#37,#38,#39),#2107);
#2107=(
GEOMETRIC_REPRESENTATION_CONTEXT(3)
GLOBAL_UNCERTAINTY_ASSIGNED_CONTEXT((#2108))
GLOBAL_UNIT_ASSIGNED_CONTEXT((#2111,#2110,#2109))
REPRESENTATION_CONTEXT('NONE','TOP_LEVEL_ASSEMBLY_PART')
);
#2108=UNCERTAINTY_MEASURE_WITH_UNIT(LENGTH_MEASURE(1.E-8),#2111,
'DISTANCE_ACCURACY_VALUE','Maximum Tolerance applied to model');
#2109=(
NAMED_UNIT(*)
SI_UNIT($,.STERADIAN.)
SOLID_ANGLE_UNIT()
);
#2110=(
NAMED_UNIT(*)
PLANE_ANGLE_UNIT()
SI_UNIT($,.RADIAN.)
);
#2111=(
LENGTH_UNIT()
NAMED_UNIT(*)
SI_UNIT($,.METRE.)
);
#2112=PRODUCT_DEFINITION_SHAPE('','',#2113);
#2113=PRODUCT_DEFINITION('','',#2115,#2114);
#2114=PRODUCT_DEFINITION_CONTEXT('',#2121,'design');
#2115=PRODUCT_DEFINITION_FORMATION_WITH_SPECIFIED_SOURCE('','',#2117,
 .NOT_KNOWN.);
#2116=PRODUCT_RELATED_PRODUCT_CATEGORY('','',(#2117));
#2117=PRODUCT('NONE','NONE','NONE',(#2119));
#2118=PRODUCT_CATEGORY('','');
#2119=PRODUCT_CONTEXT('',#2121,'mechanical');
#2120=APPLICATION_PROTOCOL_DEFINITION('international standard',
'ap242_managed_model_based_3d_engineering',2020,#2121);
#2121=APPLICATION_CONTEXT('managed model based 3d engineering');
ENDSEC;
END-ISO-10303-21;
